<svg width="14" height="14" viewBox="0 0 14 14" fill="none" xmlns="http://www.w3.org/2000/svg">
<path d="M6.99967 12.3333C5.762 12.3333 4.57501 11.8417 3.69984 10.9665C2.82467 10.0913 2.33301 8.90433 2.33301 7.66666C2.33301 6.42898 2.82467 5.24199 3.69984 4.36683C4.57501 3.49166 5.762 2.99999 6.99967 2.99999C8.23735 2.99999 9.42434 3.49166 10.2995 4.36683C11.1747 5.24199 11.6663 6.42898 11.6663 7.66666C11.6663 8.90433 11.1747 10.0913 10.2995 10.9665C9.42434 11.8417 8.23735 12.3333 6.99967 12.3333ZM6.99967 1.66666C5.40838 1.66666 3.88225 2.2988 2.75703 3.42402C1.63182 4.54923 0.999674 6.07536 0.999674 7.66666C0.999674 9.25796 1.63182 10.7841 2.75703 11.9093C3.88225 13.0345 5.40838 13.6667 6.99967 13.6667C8.59097 13.6667 10.1171 13.0345 11.2423 11.9093C12.3675 10.7841 12.9997 9.25796 12.9997 7.66666C12.9997 6.07536 12.3675 4.54923 11.2423 3.42402C10.1171 2.2988 8.59097 1.66666 6.99967 1.66666ZM7.33301 4.33332H6.33301V8.33332L9.49967 10.2333L9.99967 9.41332L7.33301 7.83332V4.33332ZM4.25301 1.25999L3.39967 0.23999L0.333008 2.80666L1.19301 3.82666L4.25301 1.25999ZM13.6663 2.81332L10.5997 0.23999L9.73967 1.25999L12.8063 3.83332L13.6663 2.81332Z" fill="black" fill-opacity="0.8"/>
</svg>
