<svg width="12" height="14" viewBox="0 0 12 14" fill="none" xmlns="http://www.w3.org/2000/svg">
<path d="M4 6.66663H2.66667V7.99996H4V6.66663ZM6.66667 6.66663H5.33333V7.99996H6.66667V6.66663ZM9.33333 6.66663H8V7.99996H9.33333V6.66663ZM10.6667 1.99996H10V0.666626H8.66667V1.99996H3.33333V0.666626H2V1.99996H1.33333C0.979711 1.99996 0.640573 2.14043 0.390524 2.39048C0.140476 2.64053 0 2.97967 0 3.33329V12.6666C0 13.0202 0.140476 13.3594 0.390524 13.6094C0.640573 13.8595 0.979711 14 1.33333 14H10.6667C11.0203 14 11.3594 13.8595 11.6095 13.6094C11.8595 13.3594 12 13.0202 12 12.6666V3.33329C12 2.97967 11.8595 2.64053 11.6095 2.39048C11.3594 2.14043 11.0203 1.99996 10.6667 1.99996ZM10.6667 12.6666H1.33333V5.33329H10.6667V12.6666Z" fill="black" fill-opacity="0.8"/>
</svg>
