<svg width="35" height="37" viewBox="0 0 35 37" fill="none" xmlns="http://www.w3.org/2000/svg">
<path d="M4.95238 36.5672C4.84845 36.6767 4.7668 36.5857 4.69443 36.5301C3.72017 35.7506 2.75148 34.9675 1.77722 34.1881C1.44134 33.919 1.0906 33.6722 0.763995 33.392C0.660074 33.3048 0.656362 33.2732 0.728736 33.1823C1.34669 32.414 1.9628 31.6458 2.57333 30.8719C3.13562 30.1612 3.69234 29.4412 4.25648 28.7304C4.69814 28.1756 5.15094 27.6318 5.5926 27.0788C6.0955 26.4479 6.58913 25.8095 7.09203 25.1767C7.53369 24.6218 7.98464 24.0744 8.42444 23.5214C8.93291 22.883 9.43581 22.2409 9.94057 21.5989C9.97212 21.5599 10.0074 21.5191 10.0464 21.4875C10.193 21.3725 10.1558 21.2722 10.0278 21.1795C9.36901 20.7044 8.70651 20.2386 8.05144 19.758C6.97698 18.9693 5.90993 18.1713 4.83546 17.3826C3.91873 16.7072 2.99644 16.0372 2.076 15.3673C1.67701 15.0778 1.27061 14.7939 0.873482 14.5026C0.758427 14.419 0.700901 14.3578 0.828947 14.1852C1.70671 13.0124 2.55849 11.821 3.4214 10.6352C3.54945 10.4571 3.69048 10.2901 3.82595 10.1175C3.88719 10.0377 3.93358 10.0284 4.03008 10.1008C5.08784 10.8802 6.15674 11.6466 7.21636 12.4241C8.17021 13.1237 9.11292 13.8363 10.0649 14.5378C10.9816 15.2133 11.9039 15.8814 12.8225 16.555C13.8357 17.2973 14.849 18.0433 15.8622 18.7856C16.5433 19.2848 17.2243 19.7802 17.9054 20.2776C16.122 22.5212 14.3387 24.7629 12.5516 27.0046C10.1967 29.9608 7.83989 32.9151 5.48868 35.8731C5.33837 36.0624 5.13795 36.2239 5.06558 36.4707L5.06743 36.4688C5.02104 36.4595 5.00248 36.4781 5.01362 36.5226L5.01732 36.5208C4.9765 36.5059 4.96537 36.5393 4.95238 36.5672Z" fill="#161614"/>
<path d="M5.06929 36.4707C5.14166 36.2239 5.34022 36.0624 5.49239 35.8731C7.8436 32.9151 10.2004 29.9608 12.5553 27.0046C14.3424 24.7629 16.1239 22.5193 17.9091 20.2776C19.5273 19.0788 21.1418 17.8744 22.7674 16.6867C24.5489 15.384 26.3304 14.0776 28.097 12.7545C29.2643 11.8804 30.4445 11.0249 31.6192 10.162C31.7714 10.0507 31.8567 10.0265 32.0052 10.2288C32.9498 11.5334 33.9166 12.8213 34.8871 14.1073C35.0337 14.3003 35.0356 14.4116 34.8333 14.5582C33.4898 15.5325 32.1499 16.5123 30.8138 17.4958C29.5853 18.4014 28.3661 19.3182 27.1395 20.2256C26.13 20.9716 25.1149 21.7102 24.1035 22.4562C23.6173 22.8162 23.1367 23.1837 22.6542 23.5492C21.5853 24.3342 20.5145 25.1155 19.4475 25.906C18.9872 26.2493 18.5048 26.5648 18.0742 26.9508C17.7792 27.0658 17.5602 27.2959 17.3115 27.4778C16.2835 28.2275 15.2684 28.9921 14.2459 29.7474C13.0749 30.614 11.9039 31.4769 10.733 32.3435C9.81067 33.0227 8.89023 33.7019 7.96979 34.383C7.03636 35.0733 6.10293 35.7655 5.16764 36.4558C5.14166 36.467 5.10083 36.4632 5.06929 36.4707Z" fill="white"/>
<path d="M10.8666 7.31903C10.8592 3.42571 14.0028 0.148493 18.1206 0.26726C21.8172 0.373036 24.985 3.34777 24.9274 7.42295C24.8736 11.1734 21.8451 14.4487 17.6307 14.317C13.9656 14.2019 10.9037 11.2365 10.8666 7.31903ZM17.8998 9.982C19.3584 10.0581 20.5275 8.74794 20.6017 7.48233C20.7001 5.80846 19.3287 4.66162 18.1225 4.59482C16.3336 4.49832 15.1904 5.81403 15.1774 7.28377C15.1644 8.66814 16.2296 10.0006 17.8998 9.982Z" fill="white"/>
<path d="M18.0742 26.9452C18.5048 26.5611 18.9854 26.2437 19.4475 25.9004C20.5127 25.1118 21.5834 24.3286 22.6542 23.5437C23.7583 24.3249 24.8625 25.1062 25.9685 25.8856C26.7127 26.4089 27.4642 26.9267 28.2084 27.4518C29.5 28.3611 30.7878 29.2779 32.0794 30.1853C32.9553 30.7996 33.8331 31.4101 34.7127 32.0188C35.0078 32.2229 35.0133 32.2266 34.8111 32.5161C33.8665 33.8541 32.9182 35.1921 31.9774 36.5319C31.8957 36.6488 31.8567 36.6136 31.7621 36.5468C30.8491 35.8991 29.9305 35.2607 29.0119 34.6186C27.5199 33.5739 26.0223 32.5365 24.5377 31.4825C23.4391 30.7031 22.3443 29.9237 21.2364 29.1591C20.1972 28.4409 19.1765 27.6949 18.1485 26.9619C18.128 26.9508 18.0984 26.9508 18.0742 26.9452Z" fill="#161614"/>
</svg>
