<svg viewBox="0 0 412 87"  xmlns="http://www.w3.org/2000/svg">
<g opacity="0.12" filter="url(#filter0_d_496_2032)">
<path d="M0 -3.83997V19.94C0 27.8 9.94 34.17 22.22 34.17C34.5 34.17 44.43 27.8 44.43 19.94C44.43 27.8 54.37 34.17 66.65 34.17C78.93 34.17 88.86 27.8 88.86 19.94C88.86 27.8 98.8 34.17 111.08 34.17C123.36 34.17 133.29 27.8 133.29 19.94C133.29 27.8 143.23 34.17 155.51 34.17C167.79 34.17 177.72 27.8 177.72 19.94C177.72 27.8 187.66 34.17 199.94 34.17C212.22 34.17 222.15 27.8 222.15 19.94C222.15 27.8 232.09 34.17 244.37 34.17C256.65 34.17 266.58 27.8 266.58 19.94C266.58 27.8 276.52 34.17 288.8 34.17C301.08 34.17 311.01 27.8 311.01 19.94C311.01 27.8 320.95 34.17 333.23 34.17C345.51 34.17 355.44 27.8 355.44 19.94C355.44 27.8 365.38 34.17 377.66 34.17C389.94 34.17 399.87 27.8 399.87 19.94C399.87 27.8 409.81 34.17 422.09 34.17C434.37 34.17 444.3 27.8 444.3 19.94C444.3 27.8 454.24 34.17 466.52 34.17C478.8 34.17 488.73 27.8 488.73 19.94V-3.83997H0Z" fill="white" stroke="#3D8680" stroke-width="2" stroke-miterlimit="10"/>
<path d="M0 39.24V63.02C0 70.88 9.94 77.25 22.22 77.25C34.5 77.25 44.43 70.88 44.43 63.02C44.43 70.88 54.37 77.25 66.65 77.25C78.93 77.25 88.86 70.88 88.86 63.02C88.86 70.88 98.8 77.25 111.08 77.25C123.36 77.25 133.29 70.88 133.29 63.02C133.29 70.88 143.23 77.25 155.51 77.25C167.79 77.25 177.72 70.88 177.72 63.02C177.72 70.88 187.66 77.25 199.94 77.25C212.22 77.25 222.15 70.88 222.15 63.02C222.15 70.88 232.09 77.25 244.37 77.25C256.65 77.25 266.58 70.88 266.58 63.02C266.58 70.88 276.52 77.25 288.8 77.25C301.08 77.25 311.01 70.88 311.01 63.02C311.01 70.88 320.95 77.25 333.23 77.25C345.51 77.25 355.44 70.88 355.44 63.02C355.44 70.88 365.38 77.25 377.66 77.25C389.94 77.25 399.87 70.88 399.87 63.02C399.87 70.88 409.81 77.25 422.09 77.25C434.37 77.25 444.3 70.88 444.3 63.02C444.3 70.88 454.24 77.25 466.52 77.25C478.8 77.25 488.73 70.88 488.73 63.02V39.24H0Z" fill="white" stroke="#3D8680" stroke-width="2" stroke-miterlimit="10"/>
<path d="M66.1599 30.39C74.5657 30.39 81.3799 23.5757 81.3799 15.17C81.3799 6.76418 74.5657 -0.0500488 66.1599 -0.0500488C57.7542 -0.0500488 50.9399 6.76418 50.9399 15.17C50.9399 23.5757 57.7542 30.39 66.1599 30.39Z" fill="white" stroke="#3D8680" stroke-width="2" stroke-miterlimit="10"/>
<path d="M288.69 30.39C297.096 30.39 303.91 23.5757 303.91 15.17C303.91 6.76418 297.096 -0.0500488 288.69 -0.0500488C280.284 -0.0500488 273.47 6.76418 273.47 15.17C273.47 23.5757 280.284 30.39 288.69 30.39Z" fill="white" stroke="#3D8680" stroke-width="2" stroke-miterlimit="10"/>
<path d="M111.29 73.47C119.696 73.47 126.51 66.6558 126.51 58.25C126.51 49.8443 119.696 43.03 111.29 43.03C102.884 43.03 96.0699 49.8443 96.0699 58.25C96.0699 66.6558 102.884 73.47 111.29 73.47Z" fill="white" stroke="#3D8680" stroke-width="2" stroke-miterlimit="10"/>
<path d="M333.83 73.47C342.236 73.47 349.05 66.6558 349.05 58.25C349.05 49.8443 342.236 43.03 333.83 43.03C325.424 43.03 318.61 49.8443 318.61 58.25C318.61 66.6558 325.424 73.47 333.83 73.47Z" fill="white" stroke="#3D8680" stroke-width="2" stroke-miterlimit="10"/>
<path d="M133.27 19.94V-3.83997" stroke="#3D8680" stroke-width="2" stroke-miterlimit="10"/>
<path d="M177.71 20.45V-3.83997" stroke="#3D8680" stroke-width="2" stroke-miterlimit="10"/>
<path d="M399.81 19.94V-3.83997" stroke="#3D8680" stroke-width="2" stroke-miterlimit="10"/>
<path d="M222.12 63.02V39.24" stroke="#3D8680" stroke-width="2" stroke-miterlimit="10"/>
</g>
<defs>
<filter id="filter0_d_496_2032" x="-5" y="-91" width="498.73" height="177.25" filterUnits="userSpaceOnUse" color-interpolation-filters="sRGB">
<feFlood flood-opacity="0" result="BackgroundImageFix"/>
<feColorMatrix in="SourceAlpha" type="matrix" values="0 0 0 0 0 0 0 0 0 0 0 0 0 0 0 0 0 0 127 0" result="hardAlpha"/>
<feOffset dy="4"/>
<feGaussianBlur stdDeviation="2"/>
<feComposite in2="hardAlpha" operator="out"/>
<feColorMatrix type="matrix" values="0 0 0 0 0 0 0 0 0 0 0 0 0 0 0 0 0 0 0.25 0"/>
<feBlend mode="normal" in2="BackgroundImageFix" result="effect1_dropShadow_496_2032"/>
<feBlend mode="normal" in="SourceGraphic" in2="effect1_dropShadow_496_2032" result="shape"/>
</filter>
</defs>
</svg>
