<svg width="18" height="11" viewBox="0 0 18 11" fill="none" xmlns="http://www.w3.org/2000/svg">
<path fill-rule="evenodd" clip-rule="evenodd" d="M9.94247 9.94247C9.69244 10.1924 9.35336 10.3329 8.99981 10.3329C8.64625 10.3329 8.30718 10.1924 8.05714 9.94247L0.514473 2.39981C0.387126 2.27681 0.28555 2.12968 0.215671 1.96701C0.145792 1.80434 0.109011 1.62938 0.107472 1.45234C0.105934 1.2753 0.13967 1.09973 0.206711 0.935868C0.273752 0.772006 0.372756 0.623136 0.497947 0.497946C0.623137 0.372756 0.772006 0.273751 0.935867 0.20671C1.09973 0.139669 1.2753 0.105934 1.45234 0.107472C1.62938 0.109011 1.80434 0.145792 1.96701 0.215671C2.12968 0.28555 2.27681 0.387126 2.39981 0.514472L8.99981 7.11447L15.5998 0.514472C15.8513 0.271595 16.1881 0.137203 16.5377 0.14024C16.8873 0.143278 17.2217 0.283503 17.4689 0.530714C17.7161 0.777925 17.8563 1.11234 17.8594 1.46194C17.8624 1.81153 17.728 2.14834 17.4851 2.39981L9.94247 9.94247Z" fill="white"/>
</svg>
