<svg width="48" height="52" viewBox="0 0 48 52" fill="none" xmlns="http://www.w3.org/2000/svg">
<path d="M5.94118 51.2025C5.79669 51.3547 5.68316 51.2283 5.58253 51.1509C4.2279 50.0672 2.88101 48.9783 1.52638 47.8946C1.05935 47.5205 0.571686 47.1773 0.117563 46.7877C-0.0269312 46.6664 -0.0320923 46.6226 0.0685373 46.4961C0.927759 45.4279 1.7844 44.3597 2.6333 43.2837C3.41512 42.2955 4.18919 41.2944 4.97359 40.3061C5.58769 39.5346 6.21727 38.7786 6.83136 38.0097C7.53061 37.1324 8.21696 36.2448 8.9162 35.365C9.5303 34.5935 10.1573 33.8323 10.7688 33.0634C11.4758 32.1758 12.1751 31.283 12.8769 30.3902C12.9207 30.3361 12.9698 30.2793 13.024 30.2354C13.2278 30.0754 13.1762 29.9361 12.9982 29.8071C12.0822 29.1466 11.161 28.4989 10.2502 27.8306C8.75623 26.734 7.27259 25.6245 5.77862 24.5279C4.50398 23.5887 3.2216 22.6572 1.9418 21.7258C1.38705 21.3233 0.821969 20.9285 0.269796 20.5234C0.109821 20.4073 0.0298358 20.3221 0.207873 20.0822C1.42833 18.4514 2.61266 16.7949 3.81248 15.1461C3.99051 14.8984 4.18661 14.6662 4.37497 14.4263C4.46012 14.3153 4.52462 14.3024 4.6588 14.403C6.12954 15.4867 7.61576 16.5524 9.08908 17.6335C10.4153 18.6063 11.7261 19.5971 13.0498 20.5724C14.3244 21.5116 15.6068 22.4405 16.884 23.3771C18.2928 24.4092 19.7016 25.4465 21.1104 26.4786C22.0574 27.1727 23.0043 27.8616 23.9513 28.5531C21.4717 31.6726 18.9921 34.7896 16.5073 37.9065C13.233 42.0168 9.95604 46.1246 6.68687 50.2375C6.47787 50.5007 6.19921 50.7252 6.09858 51.0683L6.10115 51.0658C6.03665 51.0528 6.01085 51.0787 6.02633 51.1406L6.03149 51.138C5.97472 51.1174 5.95924 51.1638 5.94118 51.2025Z" fill="#161614"/>
<path d="M6.10373 51.0683C6.20436 50.7252 6.48045 50.5007 6.69203 50.2375C9.9612 46.1246 13.2381 42.0168 16.5125 37.9065C18.9972 34.7896 21.4743 31.67 23.9565 28.5531C26.2064 26.8863 28.4513 25.2117 30.7115 23.5603C33.1886 21.749 35.6656 19.9325 38.122 18.0928C39.745 16.8775 41.386 15.688 43.0193 14.4882C43.2309 14.3334 43.3496 14.2998 43.556 14.5811C44.8694 16.395 46.2137 18.1857 47.5631 19.9738C47.767 20.2421 47.7696 20.3969 47.4883 20.6008C45.6202 21.9554 43.7573 23.3178 41.8995 24.6853C40.1914 25.9445 38.4961 27.2191 36.7906 28.4809C35.387 29.5181 33.9756 30.5451 32.5693 31.5823C31.8933 32.0829 31.225 32.5938 30.5541 33.1021C29.0679 34.1935 27.5791 35.2798 26.0955 36.379C25.4556 36.8563 24.7847 37.295 24.1861 37.8317C23.7758 37.9916 23.4714 38.3116 23.1256 38.5645C21.6962 39.6069 20.2848 40.6699 18.8631 41.7201C17.2349 42.9251 15.6068 44.1249 13.9786 45.3299C12.6963 46.2742 11.4165 47.2186 10.1367 48.1656C8.8388 49.1254 7.54093 50.0878 6.24049 51.0477C6.20436 51.0632 6.1476 51.058 6.10373 51.0683Z" fill="#14A255"/>
<path d="M14.1644 10.5352C14.1541 5.12188 18.525 0.565169 24.2506 0.730304C29.3905 0.877379 33.7949 5.01351 33.7149 10.6797C33.6401 15.8944 29.4292 20.4485 23.5694 20.2653C18.4734 20.1054 14.216 15.9821 14.1644 10.5352ZM23.9436 14.2379C25.9716 14.3437 27.5972 12.522 27.7004 10.7623C27.8371 8.43492 25.9303 6.84033 24.2532 6.74744C21.7658 6.61327 20.1764 8.44266 20.1583 10.4862C20.1403 12.4111 21.6213 14.2637 23.9436 14.2379Z" fill="#14A255"/>
<path d="M24.1861 37.8239C24.7847 37.2898 25.453 36.8486 26.0955 36.3712C27.5765 35.2746 29.0653 34.1858 30.5541 33.0943C32.0894 34.1806 33.6246 35.2669 35.1625 36.3506C36.1972 37.0782 37.2421 37.7981 38.2768 38.5283C40.0727 39.7927 41.8634 41.0673 43.6592 42.329C44.8771 43.1831 46.0976 44.032 47.3206 44.8783C47.7309 45.1621 47.7386 45.1673 47.4573 45.5698C46.144 47.4302 44.8255 49.2905 43.5173 51.1535C43.4038 51.316 43.3496 51.267 43.218 51.1741C41.9485 50.2736 40.6713 49.386 39.3941 48.4932C37.3196 47.0406 35.2373 45.5982 33.1731 44.1326C31.6456 43.0489 30.1232 41.9652 28.5828 40.9022C27.1379 39.9036 25.7188 38.8663 24.2893 37.8471C24.2609 37.8317 24.2196 37.8317 24.1861 37.8239Z" fill="#161614"/>
</svg>
