<svg width="24" height="24" viewBox="0 0 24 25" fill="none" xmlns="http://www.w3.org/2000/svg">
<rect y="0.274658" width="24" height="24" rx="12" fill="white" fill-opacity="0.8"/>
<path d="M18.017 9.41253C18.1036 9.11994 18.017 8.9046 17.6003 8.9046H16.2217C15.8706 8.9046 15.7091 9.08951 15.6225 9.29549C15.6225 9.29549 14.9203 11.0065 13.9278 12.116C13.6071 12.4367 13.4597 12.5397 13.2841 12.5397C13.1975 12.5397 13.0641 12.4367 13.0641 12.1441V9.41253C13.0641 9.06143 12.9658 8.9046 12.6756 8.9046H10.5081C10.2881 8.9046 10.157 9.06845 10.157 9.22059C10.157 9.55297 10.6532 9.63021 10.7047 10.5665V12.5982C10.7047 13.0429 10.6251 13.1248 10.4496 13.1248C9.98144 13.1248 8.84388 11.4068 8.16977 9.44062C8.03401 9.05909 7.90059 8.9046 7.54715 8.9046H6.16849C5.77526 8.9046 5.69568 9.08951 5.69568 9.29549C5.69568 9.66064 6.16381 11.4747 7.87484 13.8715C9.01475 15.5076 10.6204 16.3947 12.081 16.3947C12.9588 16.3947 13.0664 16.1981 13.0664 15.8587C13.0664 14.2952 12.9869 14.1477 13.4269 14.1477C13.6305 14.1477 13.9816 14.2507 14.8009 15.0395C15.7372 15.9758 15.8916 16.3947 16.4159 16.3947H17.7946C18.1878 16.3947 18.3868 16.1981 18.2721 15.8096C18.0099 14.9927 16.2381 13.3121 16.1585 13.1997C15.9548 12.9376 16.0133 12.8205 16.1585 12.5865C16.1608 12.5841 17.8438 10.2154 18.017 9.41253Z" fill="#3A8C80"/>
</svg>
