<svg width="18" height="19" viewBox="0 0 18 19" xmlns="http://www.w3.org/2000/svg">
<path d="M15.017 6.41253C15.1036 6.11994 15.017 5.9046 14.6003 5.9046H13.2217C12.8706 5.9046 12.7091 6.08951 12.6225 6.29549C12.6225 6.29549 11.9203 8.00652 10.9278 9.116C10.6071 9.43667 10.4597 9.53966 10.2841 9.53966C10.1975 9.53966 10.0641 9.43667 10.0641 9.14409V6.41253C10.0641 6.06143 9.9658 5.9046 9.67555 5.9046H7.50809C7.28807 5.9046 7.15699 6.06845 7.15699 6.22059C7.15699 6.55297 7.65322 6.63021 7.70471 7.56648V9.59818C7.70471 10.0429 7.62513 10.1248 7.44958 10.1248C6.98144 10.1248 5.84388 8.40678 5.16977 6.44062C5.03401 6.05909 4.90059 5.9046 4.54715 5.9046H3.16849C2.77526 5.9046 2.69568 6.08951 2.69568 6.29549C2.69568 6.66064 3.16381 8.47466 4.87484 10.8715C6.01475 12.5076 7.62045 13.3947 9.08102 13.3947C9.95878 13.3947 10.0664 13.1981 10.0664 12.8587C10.0664 11.2952 9.98686 11.1477 10.4269 11.1477C10.6305 11.1477 10.9816 11.2507 11.8009 12.0395C12.7372 12.9758 12.8916 13.3947 13.4159 13.3947H14.7946C15.1878 13.3947 15.3868 13.1981 15.2721 12.8096C15.0099 11.9927 13.2381 10.3121 13.1585 10.1997C12.9548 9.93758 13.0133 9.82054 13.1585 9.58648C13.1608 9.58413 14.8438 7.21538 15.017 6.41253Z"/>
</svg>
