<svg width="24" height="25" viewBox="0 0 24 25" fill="none" xmlns="http://www.w3.org/2000/svg">
<path d="M20.0226 8.18383C20.1381 7.79371 20.0226 7.50659 19.4671 7.50659H17.6289C17.1608 7.50659 16.9454 7.75314 16.8299 8.02778C16.8299 8.02778 15.8937 10.3092 14.5704 11.7885C14.1429 12.216 13.9462 12.3533 13.7122 12.3533C13.5967 12.3533 13.4188 12.216 13.4188 11.8259V8.18383C13.4188 7.71569 13.2877 7.50659 12.9007 7.50659H10.0108C9.71743 7.50659 9.54266 7.72505 9.54266 7.92791C9.54266 8.37108 10.2043 8.47407 10.2729 9.72243V12.4314C10.2729 13.0243 10.1668 13.1336 9.93277 13.1336C9.30859 13.1336 7.79184 10.8428 6.89302 8.22128C6.71201 7.71257 6.53412 7.50659 6.06286 7.50659H4.22466C3.70035 7.50659 3.59424 7.75314 3.59424 8.02778C3.59424 8.51464 4.21842 10.9333 6.49979 14.1291C8.01966 16.3106 10.1606 17.4934 12.108 17.4934C13.2784 17.4934 13.4219 17.2313 13.4219 16.7788C13.4219 14.694 13.3158 14.4974 13.9025 14.4974C14.1741 14.4974 14.6422 14.6347 15.7345 15.6865C16.9829 16.9348 17.1888 17.4934 17.8879 17.4934H19.7261C20.2504 17.4934 20.5157 17.2313 20.3628 16.7132C20.0133 15.624 17.6507 13.3832 17.5446 13.2334C17.2731 12.8839 17.3511 12.7278 17.5446 12.4158C17.5477 12.4126 19.7917 9.25429 20.0226 8.18383Z" fill="white"/>
</svg>
