<svg width="24" height="24" viewBox="0 0 24 25" fill="none" xmlns="http://www.w3.org/2000/svg">
<rect y="0.274658" width="24" height="24" rx="12" fill="white" fill-opacity="0.8"/>
<path d="M14.4525 13.3997C14.4975 13.0284 14.5312 12.6572 14.5312 12.2747C14.5312 11.8922 14.4975 11.5209 14.4525 11.1497H16.3538C16.4437 11.5097 16.5 11.8865 16.5 12.2747C16.5 12.6628 16.4437 13.0397 16.3538 13.3997M13.4569 16.5272C13.7944 15.9028 14.0531 15.2278 14.2331 14.5247H15.8925C15.3475 15.4631 14.4829 16.1739 13.4569 16.5272ZM13.3162 13.3997H10.6838C10.6275 13.0284 10.5938 12.6572 10.5938 12.2747C10.5938 11.8922 10.6275 11.5153 10.6838 11.1497H13.3162C13.3669 11.5153 13.4062 11.8922 13.4062 12.2747C13.4062 12.6572 13.3669 13.0284 13.3162 13.3997ZM12 16.7522C11.5331 16.0772 11.1562 15.329 10.9256 14.5247H13.0744C12.8438 15.329 12.4669 16.0772 12 16.7522ZM9.75 10.0247H8.1075C8.64674 9.08361 9.51075 8.37161 10.5375 8.02216C10.2 8.64653 9.94688 9.32153 9.75 10.0247ZM8.1075 14.5247H9.75C9.94688 15.2278 10.2 15.9028 10.5375 16.5272C9.51277 16.1741 8.64991 15.463 8.1075 14.5247ZM7.64625 13.3997C7.55625 13.0397 7.5 12.6628 7.5 12.2747C7.5 11.8865 7.55625 11.5097 7.64625 11.1497H9.5475C9.5025 11.5209 9.46875 11.8922 9.46875 12.2747C9.46875 12.6572 9.5025 13.0284 9.5475 13.3997M12 7.79153C12.4669 8.46653 12.8438 9.22028 13.0744 10.0247H10.9256C11.1562 9.22028 11.5331 8.46653 12 7.79153ZM15.8925 10.0247H14.2331C14.0568 9.32806 13.7961 8.65559 13.4569 8.02216C14.4919 8.37653 15.3525 9.09091 15.8925 10.0247ZM12 6.64966C8.88937 6.64966 6.375 9.18091 6.375 12.2747C6.375 13.7665 6.96763 15.1972 8.02252 16.2521C8.54485 16.7745 9.16495 17.1888 9.84741 17.4715C10.5299 17.7542 11.2613 17.8997 12 17.8997C13.4918 17.8997 14.9226 17.307 15.9775 16.2521C17.0324 15.1972 17.625 13.7665 17.625 12.2747C17.625 11.536 17.4795 10.8045 17.1968 10.1221C16.9141 9.43961 16.4998 8.81951 15.9775 8.29718C15.4551 7.77485 14.8351 7.36052 14.1526 7.07784C13.4701 6.79515 12.7387 6.64966 12 6.64966Z" fill="#3A8C80"/>
</svg>
