<svg width="490" height="107" viewBox="0 0 490 107" fill="none" xmlns="http://www.w3.org/2000/svg">
<g clip-path="url(#clip0_834_6477)">
<path d="M45.7625 92.6603C45.7625 100.592 35.5182 107.022 22.8812 107.022C10.2443 107.022 0 100.592 0 92.6603C0 84.7287 10.2443 78.2988 22.8812 78.2988C35.5182 78.2988 45.7625 84.7287 45.7625 92.6603Z" fill="white"/>
<path d="M90.6355 92.6603C90.6355 100.592 80.3912 107.022 67.7543 107.022C55.1173 107.022 44.873 100.592 44.873 92.6603C44.873 84.7287 55.1173 78.2988 67.7543 78.2988C80.3912 78.2988 90.6355 84.7287 90.6355 92.6603Z" fill="white"/>
<path d="M135.171 92.6603C135.171 100.592 124.927 107.022 112.29 107.022C99.653 107.022 89.4087 100.592 89.4087 92.6603C89.4087 84.7287 99.653 78.2988 112.29 78.2988C124.927 78.2988 135.171 84.7287 135.171 92.6603Z" fill="white"/>
<path d="M179.344 92.6603C179.344 100.592 169.1 107.022 156.463 107.022C143.826 107.022 133.582 100.592 133.582 92.6603C133.582 84.7287 143.826 78.2988 156.463 78.2988C169.1 78.2988 179.344 84.7287 179.344 92.6603Z" fill="white"/>
<path d="M223.12 92.4913C223.12 100.423 212.876 106.853 200.239 106.853C187.602 106.853 177.357 100.423 177.357 92.4913C177.357 84.5597 187.602 78.1299 200.239 78.1299C212.876 78.1299 223.12 84.5597 223.12 92.4913Z" fill="white"/>
<path d="M268.246 92.4913C268.246 100.423 258.002 106.853 245.365 106.853C232.728 106.853 222.484 100.423 222.484 92.4913C222.484 84.5597 232.728 78.1299 245.365 78.1299C258.002 78.1299 268.246 84.5597 268.246 92.4913Z" fill="white"/>
<path d="M312.571 92.4913C312.571 100.423 302.327 106.853 289.69 106.853C277.053 106.853 266.809 100.423 266.809 92.4913C266.809 84.5597 277.053 78.1299 289.69 78.1299C302.327 78.1299 312.571 84.5597 312.571 92.4913Z" fill="white"/>
<path d="M357.077 92.4913C357.077 100.423 346.833 106.853 334.196 106.853C321.559 106.853 311.315 100.423 311.315 92.4913C311.315 84.5597 321.559 78.1299 334.196 78.1299C346.833 78.1299 357.077 84.5597 357.077 92.4913Z" fill="white"/>
<path d="M401.467 92.4913C401.467 100.423 391.223 106.853 378.586 106.853C365.949 106.853 355.705 100.423 355.705 92.4913C355.705 84.5597 365.949 78.1299 378.586 78.1299C391.223 78.1299 401.467 84.5597 401.467 92.4913Z" fill="white"/>
<path d="M446.573 92.4913C446.573 100.423 436.328 106.853 423.691 106.853C411.054 106.853 400.81 100.423 400.81 92.4913C400.81 84.5597 411.054 78.1299 423.691 78.1299C436.328 78.1299 446.573 84.5597 446.573 92.4913Z" fill="white"/>
<path d="M490.351 92.4913C490.351 100.423 480.107 106.853 467.47 106.853C454.833 106.853 444.589 100.423 444.589 92.4913C444.589 84.5597 454.833 78.1299 467.47 78.1299C480.107 78.1299 490.351 84.5597 490.351 92.4913Z" fill="white"/>
<path d="M0 0H491V91H0V0Z" fill="white"/>
<g opacity="0.12" filter="url(#filter0_d_834_6477)">
<path d="M0.998505 -17.9849V5.75998C0.998505 13.6084 10.9237 19.9689 23.1854 19.9689C35.4472 19.9689 45.3624 13.6084 45.3624 5.75998C45.3624 13.6084 55.2876 19.9689 67.5493 19.9689C79.8111 19.9689 89.7263 13.6084 89.7263 5.75998C89.7263 13.6084 99.6516 19.9689 111.913 19.9689C124.175 19.9689 134.09 13.6084 134.09 5.75998C134.09 13.6084 144.015 19.9689 156.277 19.9689C168.539 19.9689 178.454 13.6084 178.454 5.75998C178.454 13.6084 188.379 19.9689 200.641 19.9689C212.903 19.9689 222.818 13.6084 222.818 5.75998C222.818 13.6084 232.743 19.9689 245.005 19.9689C257.267 19.9689 267.182 13.6084 267.182 5.75998C267.182 13.6084 277.107 19.9689 289.369 19.9689C301.631 19.9689 311.546 13.6084 311.546 5.75998C311.546 13.6084 321.471 19.9689 333.733 19.9689C345.995 19.9689 355.91 13.6084 355.91 5.75998C355.91 13.6084 365.835 19.9689 378.097 19.9689C390.358 19.9689 400.274 13.6084 400.274 5.75998C400.274 13.6084 410.199 19.9689 422.461 19.9689C434.722 19.9689 444.638 13.6084 444.638 5.75998C444.638 13.6084 454.563 19.9689 466.825 19.9689C479.086 19.9689 489.001 13.6084 489.001 5.75998V-17.9849H1.06838H0.998505Z" fill="white"/>
<path fill-rule="evenodd" clip-rule="evenodd" d="M0 -18.9834H490V5.75996C490 10.1402 487.235 13.9661 483.05 16.6482C478.855 19.3373 473.117 20.9674 466.825 20.9674C460.532 20.9674 454.792 19.3373 450.594 16.6484C447.904 14.9249 445.799 12.7288 444.638 10.2167C443.478 12.7286 441.375 14.9246 438.686 16.6482C434.491 19.3373 428.753 20.9674 422.461 20.9674C416.168 20.9674 410.428 19.3373 406.23 16.6484C403.54 14.9249 401.435 12.7288 400.274 10.2167C399.114 12.7286 397.011 14.9246 394.322 16.6482C390.127 19.3373 384.389 20.9674 378.097 20.9674C371.804 20.9674 366.064 19.3373 361.867 16.6484C359.176 14.9249 357.071 12.7288 355.91 10.2167C354.75 12.7286 352.647 14.9246 349.958 16.6482C345.763 19.3373 340.025 20.9674 333.733 20.9674C327.44 20.9674 321.7 19.3373 317.503 16.6484C314.812 14.9249 312.707 12.7288 311.546 10.2167C310.387 12.7286 308.283 14.9246 305.594 16.6482C301.399 19.3373 295.661 20.9674 289.369 20.9674C283.076 20.9674 277.336 19.3373 273.139 16.6484C270.448 14.9249 268.343 12.7288 267.182 10.2167C266.023 12.7286 263.92 14.9246 261.23 16.6482C257.035 19.3373 251.298 20.9674 245.005 20.9674C238.712 20.9674 232.973 19.3373 228.775 16.6484C226.084 14.9249 223.979 12.7288 222.818 10.2167C221.659 12.7286 219.556 14.9246 216.867 16.6482C212.671 19.3373 206.934 20.9674 200.641 20.9674C194.349 20.9674 188.609 19.3373 184.411 16.6484C181.72 14.9249 179.615 12.7288 178.455 10.2167C177.295 12.7286 175.192 14.9246 172.503 16.6482C168.307 19.3373 162.57 20.9674 156.277 20.9674C149.985 20.9674 144.245 19.3373 140.047 16.6484C137.356 14.9249 135.251 12.7288 134.091 10.2167C132.931 12.7286 130.828 14.9246 128.139 16.6482C123.943 19.3373 118.206 20.9674 111.913 20.9674C105.621 20.9674 99.8808 19.3373 95.6831 16.6484C92.9924 14.9249 90.8875 12.7288 89.7267 10.2167C88.567 12.7286 86.4639 14.9246 83.7748 16.6482C79.5794 19.3373 73.8419 20.9674 67.5493 20.9674C61.2568 20.9674 55.5169 19.3373 51.3191 16.6484C48.6285 14.9249 46.5236 12.7288 45.3628 10.2167C44.2031 12.7286 42.1 14.9246 39.4109 16.6482C35.2155 19.3373 29.478 20.9674 23.1854 20.9674C16.8929 20.9674 11.153 19.3373 6.95524 16.6484C2.76843 13.9665 0 10.1406 0 5.75996V-18.9834ZM44.3639 5.75996H46.3609C46.3609 9.22772 48.5551 12.5063 52.3963 14.9668C56.2266 17.4203 61.5801 18.9704 67.5493 18.9704C73.5185 18.9704 78.8695 17.4203 82.6972 14.9669C86.5356 12.5066 88.7278 9.22815 88.7278 5.75996H90.7248C90.7248 9.22772 92.919 12.5063 96.7602 14.9668C100.591 17.4203 105.944 18.9704 111.913 18.9704C117.882 18.9704 123.233 17.4203 127.061 14.9669C130.9 12.5066 133.092 9.22815 133.092 5.75996H135.089C135.089 9.22772 137.283 12.5063 141.124 14.9668C144.954 17.4203 150.308 18.9704 156.277 18.9704C162.246 18.9704 167.597 17.4203 171.425 14.9669C175.263 12.5066 177.456 9.22815 177.456 5.75996H179.453C179.453 9.22772 181.647 12.5063 185.488 14.9668C189.318 17.4203 194.672 18.9704 200.641 18.9704C206.61 18.9704 211.961 17.4203 215.789 14.9669C219.627 12.5066 221.82 9.22815 221.82 5.75996H223.817C223.817 9.22772 226.011 12.5063 229.852 14.9668C233.682 17.4203 239.036 18.9704 245.005 18.9704C250.974 18.9704 256.325 17.4203 260.153 14.9669C263.991 12.5066 266.183 9.22815 266.183 5.75996H268.18C268.18 9.22772 270.375 12.5063 274.216 14.9668C278.046 17.4203 283.4 18.9704 289.369 18.9704C295.338 18.9704 300.689 17.4203 304.517 14.9669C308.355 12.5066 310.547 9.22815 310.547 5.75996H312.544C312.544 9.22772 314.739 12.5063 318.58 14.9668C322.41 17.4203 327.764 18.9704 333.733 18.9704C339.702 18.9704 345.053 17.4203 348.881 14.9669C352.719 12.5066 354.911 9.22815 354.911 5.75996H356.908C356.908 9.22772 359.102 12.5063 362.944 14.9668C366.774 17.4203 372.127 18.9704 378.097 18.9704C384.066 18.9704 389.417 17.4203 393.245 14.9669C397.083 12.5066 399.275 9.22815 399.275 5.75996H401.272C401.272 9.22772 403.466 12.5063 407.308 14.9668C411.138 17.4203 416.491 18.9704 422.461 18.9704C428.43 18.9704 433.781 17.4203 437.608 14.9669C441.447 12.5066 443.639 9.22815 443.639 5.75996H445.636C445.636 9.22772 447.83 12.5063 451.672 14.9668C455.502 17.4203 460.855 18.9704 466.825 18.9704C472.794 18.9704 478.145 17.4203 481.972 14.9669C485.811 12.5066 488.003 9.22815 488.003 5.75996V-16.9864H1.99702V5.75996C1.99702 9.22772 4.19119 12.5063 8.0324 14.9668C11.8627 17.4203 17.2162 18.9704 23.1854 18.9704C29.1546 18.9704 34.5056 17.4203 38.3333 14.9669C42.1717 12.5066 44.3639 9.22815 44.3639 5.75996Z" fill="#3D8680"/>
<path d="M0.998505 25.0312V48.7761C0.998505 56.6245 10.9237 62.985 23.1854 62.985C35.4472 62.985 45.3624 56.6245 45.3624 48.7761C45.3624 56.6245 55.2876 62.985 67.5493 62.985C79.8111 62.985 89.7263 56.6245 89.7263 48.7761C89.7263 56.6245 99.6516 62.985 111.913 62.985C124.175 62.985 134.09 56.6245 134.09 48.7761C134.09 56.6245 144.015 62.985 156.277 62.985C168.539 62.985 178.454 56.6245 178.454 48.7761C178.454 56.6245 188.379 62.985 200.641 62.985C212.903 62.985 222.818 56.6245 222.818 48.7761C222.818 56.6245 232.743 62.985 245.005 62.985C257.267 62.985 267.182 56.6245 267.182 48.7761C267.182 56.6245 277.107 62.985 289.369 62.985C301.631 62.985 311.546 56.6245 311.546 48.7761C311.546 56.6245 321.471 62.985 333.733 62.985C345.995 62.985 355.91 56.6245 355.91 48.7761C355.91 56.6245 365.835 62.985 378.097 62.985C390.358 62.985 400.274 56.6245 400.274 48.7761C400.274 56.6245 410.199 62.985 422.461 62.985C434.722 62.985 444.638 56.6245 444.638 48.7761C444.638 56.6245 454.563 62.985 466.825 62.985C479.086 62.985 489.001 56.6245 489.001 48.7761V25.0312H1.06838H0.998505Z" fill="white"/>
<path fill-rule="evenodd" clip-rule="evenodd" d="M0 24.0327H490V48.7761C490 53.1563 487.235 56.9823 483.05 59.6644C478.855 62.3534 473.117 63.9836 466.825 63.9836C460.532 63.9836 454.792 62.3534 450.594 59.6645C447.904 57.941 445.799 55.7449 444.638 53.2328C443.478 55.7447 441.375 57.9407 438.686 59.6644C434.491 62.3534 428.753 63.9836 422.461 63.9836C416.168 63.9836 410.428 62.3534 406.23 59.6645C403.54 57.941 401.435 55.7449 400.274 53.2328C399.114 55.7447 397.011 57.9408 394.322 59.6644C390.127 62.3534 384.389 63.9836 378.097 63.9836C371.804 63.9836 366.064 62.3534 361.867 59.6645C359.176 57.941 357.071 55.7449 355.91 53.2328C354.75 55.7447 352.647 57.9408 349.958 59.6644C345.763 62.3534 340.025 63.9836 333.733 63.9836C327.44 63.9836 321.7 62.3534 317.503 59.6645C314.812 57.941 312.707 55.7449 311.546 53.2328C310.387 55.7447 308.283 57.9408 305.594 59.6644C301.399 62.3534 295.661 63.9836 289.369 63.9836C283.076 63.9836 277.336 62.3534 273.139 59.6645C270.448 57.941 268.343 55.7449 267.182 53.2328C266.023 55.7447 263.92 57.9408 261.23 59.6644C257.035 62.3534 251.298 63.9836 245.005 63.9836C238.712 63.9836 232.973 62.3534 228.775 59.6645C226.084 57.941 223.979 55.7449 222.818 53.2328C221.659 55.7447 219.556 57.9408 216.867 59.6644C212.671 62.3534 206.934 63.9836 200.641 63.9836C194.349 63.9836 188.609 62.3534 184.411 59.6645C181.72 57.941 179.615 55.7449 178.455 53.2328C177.295 55.7447 175.192 57.9408 172.503 59.6644C168.307 62.3534 162.57 63.9836 156.277 63.9836C149.985 63.9836 144.245 62.3534 140.047 59.6645C137.356 57.941 135.251 55.7449 134.091 53.2328C132.931 55.7447 130.828 57.9408 128.139 59.6644C123.943 62.3534 118.206 63.9836 111.913 63.9836C105.621 63.9836 99.8808 62.3534 95.6831 59.6645C92.9924 57.941 90.8875 55.7449 89.7267 53.2328C88.567 55.7447 86.4639 57.9408 83.7748 59.6644C79.5794 62.3534 73.8419 63.9836 67.5493 63.9836C61.2568 63.9836 55.5169 62.3534 51.3191 59.6645C48.6285 57.941 46.5236 55.7449 45.3628 53.2328C44.2031 55.7447 42.1 57.9408 39.4109 59.6644C35.2155 62.3534 29.478 63.9836 23.1854 63.9836C16.8929 63.9836 11.153 62.3534 6.95524 59.6645C2.76843 56.9826 0 53.1567 0 48.7761V24.0327ZM44.3639 48.7761H46.3609C46.3609 52.2438 48.5551 55.5224 52.3963 57.9829C56.2266 60.4364 61.5801 61.9865 67.5493 61.9865C73.5185 61.9865 78.8695 60.4364 82.6972 57.983C86.5356 55.5228 88.7278 52.2443 88.7278 48.7761H90.7248C90.7248 52.2438 92.919 55.5224 96.7602 57.9829C100.591 60.4364 105.944 61.9865 111.913 61.9865C117.882 61.9865 123.233 60.4364 127.061 57.983C130.9 55.5228 133.092 52.2443 133.092 48.7761H135.089C135.089 52.2438 137.283 55.5224 141.124 57.9829C144.954 60.4364 150.308 61.9865 156.277 61.9865C162.246 61.9865 167.597 60.4364 171.425 57.983C175.263 55.5228 177.456 52.2443 177.456 48.7761H179.453C179.453 52.2438 181.647 55.5224 185.488 57.9829C189.318 60.4364 194.672 61.9865 200.641 61.9865C206.61 61.9865 211.961 60.4364 215.789 57.983C219.627 55.5228 221.82 52.2443 221.82 48.7761H223.817C223.817 52.2438 226.011 55.5224 229.852 57.9829C233.682 60.4364 239.036 61.9865 245.005 61.9865C250.974 61.9865 256.325 60.4364 260.153 57.983C263.991 55.5228 266.183 52.2443 266.183 48.7761H268.18C268.18 52.2438 270.375 55.5224 274.216 57.9829C278.046 60.4364 283.4 61.9865 289.369 61.9865C295.338 61.9865 300.689 60.4364 304.517 57.983C308.355 55.5228 310.547 52.2443 310.547 48.7761H312.544C312.544 52.2438 314.739 55.5224 318.58 57.9829C322.41 60.4364 327.764 61.9865 333.733 61.9865C339.702 61.9865 345.053 60.4364 348.881 57.983C352.719 55.5228 354.911 52.2443 354.911 48.7761H356.908C356.908 52.2438 359.102 55.5224 362.944 57.9829C366.774 60.4364 372.127 61.9865 378.097 61.9865C384.066 61.9865 389.417 60.4364 393.245 57.983C397.083 55.5228 399.275 52.2443 399.275 48.7761H401.272C401.272 52.2438 403.466 55.5224 407.308 57.9829C411.138 60.4364 416.491 61.9865 422.461 61.9865C428.43 61.9865 433.781 60.4364 437.608 57.983C441.447 55.5228 443.639 52.2443 443.639 48.7761H445.636C445.636 52.2438 447.83 55.5224 451.672 57.9829C455.502 60.4364 460.855 61.9865 466.825 61.9865C472.794 61.9865 478.145 60.4364 481.972 57.983C485.811 55.5228 488.003 52.2443 488.003 48.7761V26.0298H1.99702V48.7761C1.99702 52.2438 4.19119 55.5224 8.0324 57.9829C11.8627 60.4364 17.2162 61.9865 23.1854 61.9865C29.1546 61.9865 34.5056 60.4364 38.3333 57.983C42.1717 55.5228 44.3639 52.2443 44.3639 48.7761Z" fill="#3D8680"/>
<path d="M0.998505 68.0479V91.7927C0.998505 99.6411 10.9237 106.002 23.1854 106.002C35.4472 106.002 45.3624 99.6411 45.3624 91.7927C45.3624 99.6411 55.2876 106.002 67.5493 106.002C79.8111 106.002 89.7263 99.6411 89.7263 91.7927C89.7263 99.6411 99.6516 106.002 111.913 106.002C124.175 106.002 134.09 99.6411 134.09 91.7927C134.09 99.6411 144.015 106.002 156.277 106.002C168.539 106.002 178.454 99.6411 178.454 91.7927C178.454 99.6411 188.379 106.002 200.641 106.002C212.903 106.002 222.818 99.6411 222.818 91.7927C222.818 99.6411 232.743 106.002 245.005 106.002C257.267 106.002 267.182 99.6411 267.182 91.7927C267.182 99.6411 277.107 106.002 289.369 106.002C301.631 106.002 311.546 99.6411 311.546 91.7927C311.546 99.6411 321.471 106.002 333.733 106.002C345.995 106.002 355.91 99.6411 355.91 91.7927C355.91 99.6411 365.835 106.002 378.097 106.002C390.358 106.002 400.274 99.6411 400.274 91.7927C400.274 99.6411 410.199 106.002 422.461 106.002C434.722 106.002 444.638 99.6411 444.638 91.7927C444.638 99.6411 454.563 106.002 466.825 106.002C479.086 106.002 489.001 99.6411 489.001 91.7927V68.0479H1.06838H0.998505Z" fill="white"/>
<path fill-rule="evenodd" clip-rule="evenodd" d="M0 67.0493H490V91.7927C490 96.1729 487.235 99.9989 483.05 102.681C478.855 105.37 473.117 107 466.825 107C460.532 107 454.792 105.37 450.594 102.681C447.904 100.958 445.799 98.7615 444.638 96.2494C443.478 98.7613 441.375 100.957 438.686 102.681C434.491 105.37 428.753 107 422.461 107C416.168 107 410.428 105.37 406.23 102.681C403.54 100.958 401.435 98.7615 400.274 96.2494C399.114 98.7613 397.011 100.957 394.322 102.681C390.127 105.37 384.389 107 378.097 107C371.804 107 366.064 105.37 361.867 102.681C359.176 100.958 357.071 98.7615 355.91 96.2494C354.75 98.7613 352.647 100.957 349.958 102.681C345.763 105.37 340.025 107 333.733 107C327.44 107 321.7 105.37 317.503 102.681C314.812 100.958 312.707 98.7615 311.546 96.2494C310.387 98.7613 308.283 100.957 305.594 102.681C301.399 105.37 295.661 107 289.369 107C283.076 107 277.336 105.37 273.139 102.681C270.448 100.958 268.343 98.7615 267.182 96.2494C266.023 98.7613 263.92 100.957 261.23 102.681C257.035 105.37 251.298 107 245.005 107C238.712 107 232.973 105.37 228.775 102.681C226.084 100.958 223.979 98.7616 222.818 96.2494C221.659 98.7613 219.556 100.957 216.867 102.681C212.671 105.37 206.934 107 200.641 107C194.349 107 188.609 105.37 184.411 102.681C181.72 100.958 179.615 98.7616 178.455 96.2494C177.295 98.7613 175.192 100.957 172.503 102.681C168.307 105.37 162.57 107 156.277 107C149.985 107 144.245 105.37 140.047 102.681C137.356 100.958 135.251 98.7616 134.091 96.2494C132.931 98.7613 130.828 100.957 128.139 102.681C123.943 105.37 118.206 107 111.913 107C105.621 107 99.8808 105.37 95.6831 102.681C92.9924 100.958 90.8875 98.7615 89.7267 96.2494C88.567 98.7613 86.4639 100.957 83.7748 102.681C79.5794 105.37 73.8419 107 67.5493 107C61.2568 107 55.5169 105.37 51.3191 102.681C48.6285 100.958 46.5236 98.7615 45.3628 96.2494C44.2031 98.7613 42.1 100.957 39.4109 102.681C35.2155 105.37 29.478 107 23.1854 107C16.8929 107 11.153 105.37 6.95524 102.681C2.76843 99.9992 0 96.1733 0 91.7927V67.0493ZM44.3639 91.7927H46.3609C46.3609 95.2604 48.5551 98.539 52.3963 100.999C56.2266 103.453 61.5801 105.003 67.5493 105.003C73.5185 105.003 78.8695 103.453 82.6972 101C86.5356 98.5394 88.7278 95.2609 88.7278 91.7927H90.7248C90.7248 95.2604 92.919 98.539 96.7602 100.999C100.591 103.453 105.944 105.003 111.913 105.003C117.882 105.003 123.233 103.453 127.061 101C130.9 98.5394 133.092 95.2609 133.092 91.7927H135.089C135.089 95.2604 137.283 98.539 141.124 100.999C144.954 103.453 150.308 105.003 156.277 105.003C162.246 105.003 167.597 103.453 171.425 101C175.263 98.5394 177.456 95.2609 177.456 91.7927H179.453C179.453 95.2604 181.647 98.539 185.488 100.999C189.318 103.453 194.672 105.003 200.641 105.003C206.61 105.003 211.961 103.453 215.789 101C219.627 98.5394 221.82 95.2609 221.82 91.7927H223.817C223.817 95.2604 226.011 98.539 229.852 100.999C233.682 103.453 239.036 105.003 245.005 105.003C250.974 105.003 256.325 103.453 260.153 101C263.991 98.5394 266.183 95.2609 266.183 91.7927H268.18C268.18 95.2604 270.375 98.539 274.216 100.999C278.046 103.453 283.4 105.003 289.369 105.003C295.338 105.003 300.689 103.453 304.517 101C308.355 98.5394 310.547 95.2609 310.547 91.7927H312.544C312.544 95.2604 314.739 98.539 318.58 100.999C322.41 103.453 327.764 105.003 333.733 105.003C339.702 105.003 345.053 103.453 348.881 101C352.719 98.5394 354.911 95.2609 354.911 91.7927H356.908C356.908 95.2604 359.102 98.539 362.944 100.999C366.774 103.453 372.127 105.003 378.097 105.003C384.066 105.003 389.417 103.453 393.245 101C397.083 98.5394 399.275 95.2609 399.275 91.7927H401.272C401.272 95.2604 403.466 98.539 407.308 100.999C411.138 103.453 416.491 105.003 422.461 105.003C428.43 105.003 433.781 103.453 437.608 101C441.447 98.5394 443.639 95.2609 443.639 91.7927H445.636C445.636 95.2604 447.83 98.539 451.672 100.999C455.502 103.453 460.855 105.003 466.825 105.003C472.794 105.003 478.145 103.453 481.972 101C485.811 98.5394 488.003 95.2609 488.003 91.7927V69.0464H1.99702V91.7927C1.99702 95.2604 4.19119 98.539 8.0324 100.999C11.8627 103.453 17.2162 105.003 23.1854 105.003C29.1546 105.003 34.5056 103.453 38.3333 101C42.1717 98.5394 44.3639 95.2609 44.3639 91.7927Z" fill="#3D8680"/>
<path d="M67.0601 59.2109C75.4533 59.2109 82.2575 52.4068 82.2575 44.0134C82.2575 35.6201 75.4533 28.8159 67.0601 28.8159C58.6668 28.8159 51.8627 35.6201 51.8627 44.0134C51.8627 52.4068 58.6668 59.2109 67.0601 59.2109Z" fill="white"/>
<path fill-rule="evenodd" clip-rule="evenodd" d="M67.0601 29.8144C59.2183 29.8144 52.8613 36.1715 52.8613 44.0134C52.8613 51.8553 59.2183 58.2124 67.0601 58.2124C74.9019 58.2124 81.2589 51.8553 81.2589 44.0134C81.2589 36.1715 74.9019 29.8144 67.0601 29.8144ZM50.8642 44.0134C50.8642 35.0686 58.1153 27.8174 67.0601 27.8174C76.0048 27.8174 83.256 35.0686 83.256 44.0134C83.256 52.9582 76.0048 60.2094 67.0601 60.2094C58.1153 60.2094 50.8642 52.9582 50.8642 44.0134Z" fill="#3D8680"/>
<path d="M289.27 59.2109C297.663 59.2109 304.467 52.4068 304.467 44.0134C304.467 35.6201 297.663 28.8159 289.27 28.8159C280.876 28.8159 274.072 35.6201 274.072 44.0134C274.072 52.4068 280.876 59.2109 289.27 59.2109Z" fill="white"/>
<path fill-rule="evenodd" clip-rule="evenodd" d="M289.27 29.8144C281.428 29.8144 275.071 36.1715 275.071 44.0134C275.071 51.8553 281.428 58.2124 289.27 58.2124C297.111 58.2124 303.468 51.8553 303.468 44.0134C303.468 36.1715 297.111 29.8144 289.27 29.8144ZM273.074 44.0134C273.074 35.0686 280.325 27.8174 289.27 27.8174C298.214 27.8174 305.465 35.0686 305.465 44.0134C305.465 52.9582 298.214 60.2094 289.27 60.2094C280.325 60.2094 273.074 52.9582 273.074 44.0134Z" fill="#3D8680"/>
<path d="M112.123 102.227C120.516 102.227 127.32 95.4224 127.32 87.029C127.32 78.6357 120.516 71.8315 112.123 71.8315C103.73 71.8315 96.9256 78.6357 96.9256 87.029C96.9256 95.4224 103.73 102.227 112.123 102.227Z" fill="white"/>
<path fill-rule="evenodd" clip-rule="evenodd" d="M112.123 72.8301C104.281 72.8301 97.9241 79.1871 97.9241 87.029C97.9241 94.8709 104.281 101.228 112.123 101.228C119.965 101.228 126.322 94.8709 126.322 87.029C126.322 79.1872 119.965 72.8301 112.123 72.8301ZM95.9271 87.029C95.9271 78.0842 103.178 70.833 112.123 70.833C121.068 70.833 128.319 78.0842 128.319 87.029C128.319 95.9738 121.068 103.225 112.123 103.225C103.178 103.225 95.9271 95.9738 95.9271 87.029Z" fill="#3D8680"/>
<path d="M334.332 102.227C342.725 102.227 349.529 95.4224 349.529 87.029C349.529 78.6357 342.725 71.8315 334.332 71.8315C325.939 71.8315 319.135 78.6357 319.135 87.029C319.135 95.4224 325.939 102.227 334.332 102.227Z" fill="white"/>
<path fill-rule="evenodd" clip-rule="evenodd" d="M334.332 72.8301C326.49 72.8301 320.133 79.1872 320.133 87.029C320.133 94.8709 326.49 101.228 334.332 101.228C342.174 101.228 348.531 94.8709 348.531 87.029C348.531 79.1871 342.174 72.8301 334.332 72.8301ZM318.136 87.029C318.136 78.0842 325.387 70.833 334.332 70.833C343.277 70.833 350.528 78.0842 350.528 87.029C350.528 95.9738 343.277 103.225 334.332 103.225C325.387 103.225 318.136 95.9738 318.136 87.029Z" fill="#3D8680"/>
<path d="M466.775 16.1943C475.168 16.1943 481.972 9.39016 481.972 0.996816C481.972 -7.39653 475.168 -14.2007 466.775 -14.2007C458.381 -14.2007 451.577 -7.39653 451.577 0.996816C451.577 9.39016 458.381 16.1943 466.775 16.1943Z" fill="white"/>
<path fill-rule="evenodd" clip-rule="evenodd" d="M466.775 -13.2022C458.933 -13.2022 452.576 -6.84508 452.576 0.996801C452.576 8.83868 458.933 15.1958 466.775 15.1958C474.616 15.1958 480.973 8.83868 480.973 0.996801C480.973 -6.84507 474.616 -13.2022 466.775 -13.2022ZM450.579 0.996801C450.579 -7.94801 457.83 -15.1992 466.775 -15.1992C475.719 -15.1992 482.97 -7.94802 482.97 0.996801C482.97 9.94162 475.719 17.1928 466.775 17.1928C457.83 17.1928 450.579 9.94161 450.579 0.996801Z" fill="#3D8680"/>
<path d="M422.341 16.1943C430.734 16.1943 437.538 9.39016 437.538 0.996816C437.538 -7.39653 430.734 -14.2007 422.341 -14.2007C413.947 -14.2007 407.143 -7.39653 407.143 0.996816C407.143 9.39016 413.947 16.1943 422.341 16.1943Z" fill="white"/>
<path fill-rule="evenodd" clip-rule="evenodd" d="M422.341 -13.2022C414.499 -13.2022 408.142 -6.84508 408.142 0.996801C408.142 8.83868 414.499 15.1958 422.341 15.1958C430.183 15.1958 436.54 8.83868 436.54 0.996801C436.54 -6.84507 430.183 -13.2022 422.341 -13.2022ZM406.145 0.996801C406.145 -7.94801 413.396 -15.1992 422.341 -15.1992C431.285 -15.1992 438.537 -7.94802 438.537 0.996801C438.537 9.94162 431.285 17.1928 422.341 17.1928C413.396 17.1928 406.145 9.94161 406.145 0.996801Z" fill="#3D8680"/>
<path d="M201.999 16.1943C210.392 16.1943 217.196 9.39016 217.196 0.996816C217.196 -7.39653 210.392 -14.2007 201.999 -14.2007C193.606 -14.2007 186.802 -7.39653 186.802 0.996816C186.802 9.39016 193.606 16.1943 201.999 16.1943Z" fill="white"/>
<path fill-rule="evenodd" clip-rule="evenodd" d="M201.999 -13.2022C194.157 -13.2022 187.8 -6.84508 187.8 0.996801C187.8 8.83868 194.157 15.1958 201.999 15.1958C209.841 15.1958 216.198 8.83868 216.198 0.996801C216.198 -6.84507 209.841 -13.2022 201.999 -13.2022ZM185.803 0.996801C185.803 -7.94801 193.054 -15.1992 201.999 -15.1992C210.944 -15.1992 218.195 -7.94802 218.195 0.996801C218.195 9.94162 210.944 17.1928 201.999 17.1928C193.054 17.1928 185.803 9.94161 185.803 0.996801Z" fill="#3D8680"/>
<path d="M157.565 16.1943C165.959 16.1943 172.763 9.39016 172.763 0.996816C172.763 -7.39653 165.959 -14.2007 157.565 -14.2007C149.172 -14.2007 142.368 -7.39653 142.368 0.996816C142.368 9.39016 149.172 16.1943 157.565 16.1943Z" fill="white"/>
<path fill-rule="evenodd" clip-rule="evenodd" d="M157.565 -13.2022C149.723 -13.2022 143.366 -6.84508 143.366 0.996801C143.366 8.83868 149.723 15.1958 157.565 15.1958C165.407 15.1958 171.764 8.83868 171.764 0.996801C171.764 -6.84507 165.407 -13.2022 157.565 -13.2022ZM141.369 0.996801C141.369 -7.94801 148.62 -15.1992 157.565 -15.1992C166.51 -15.1992 173.761 -7.94802 173.761 0.996801C173.761 9.94162 166.51 17.1928 157.565 17.1928C148.62 17.1928 141.369 9.94161 141.369 0.996801Z" fill="#3D8680"/>
<path fill-rule="evenodd" clip-rule="evenodd" d="M46.3609 -17.9849V5.75998H44.3639V-17.9849H46.3609Z" fill="#3D8680"/>
<path fill-rule="evenodd" clip-rule="evenodd" d="M135.069 25.0312V48.7761H133.072V25.0312H135.069Z" fill="#3D8680"/>
<path fill-rule="evenodd" clip-rule="evenodd" d="M179.452 25.0312V49.2853H177.455V25.0312H179.452Z" fill="#3D8680"/>
<path fill-rule="evenodd" clip-rule="evenodd" d="M401.212 25.0312V48.7761H399.215V25.0312H401.212Z" fill="#3D8680"/>
<path fill-rule="evenodd" clip-rule="evenodd" d="M445.596 25.0312V49.2853H443.599V25.0312H445.596Z" fill="#3D8680"/>
<path fill-rule="evenodd" clip-rule="evenodd" d="M445.596 68.0479V92.3019H443.599V68.0479H445.596Z" fill="#3D8680"/>
<path fill-rule="evenodd" clip-rule="evenodd" d="M223.787 68.0479V91.7927H221.79V68.0479H223.787Z" fill="#3D8680"/>
</g>
</g>
<defs>
<filter id="filter0_d_834_6477" x="-4" y="-62" width="498" height="177" filterUnits="userSpaceOnUse" color-interpolation-filters="sRGB">
<feFlood flood-opacity="0" result="BackgroundImageFix"/>
<feColorMatrix in="SourceAlpha" type="matrix" values="0 0 0 0 0 0 0 0 0 0 0 0 0 0 0 0 0 0 127 0" result="hardAlpha"/>
<feOffset dy="4"/>
<feGaussianBlur stdDeviation="2"/>
<feComposite in2="hardAlpha" operator="out"/>
<feColorMatrix type="matrix" values="0 0 0 0 0 0 0 0 0 0 0 0 0 0 0 0 0 0 0.25 0"/>
<feBlend mode="normal" in2="BackgroundImageFix" result="effect1_dropShadow_834_6477"/>
<feBlend mode="normal" in="SourceGraphic" in2="effect1_dropShadow_834_6477" result="shape"/>
</filter>
<clipPath id="clip0_834_6477">
<rect width="490" height="107" fill="white"/>
</clipPath>
</defs>
</svg>
