<svg width="52" height="73" viewBox="0 0 52 73" fill="none" xmlns="http://www.w3.org/2000/svg">
<path d="M26.0001 16.7916C28.376 16.7916 30.6546 17.7354 32.3346 19.4155C34.0146 21.0955 34.9584 23.3741 34.9584 25.75C34.9584 26.9264 34.7267 28.0913 34.2765 29.1782C33.8263 30.265 33.1664 31.2526 32.3346 32.0845C31.5027 32.9163 30.5152 33.5762 29.4283 34.0264C28.3414 34.4766 27.1765 34.7083 26.0001 34.7083C23.6242 34.7083 21.3456 33.7645 19.6656 32.0845C17.9856 30.4044 17.0417 28.1259 17.0417 25.75C17.0417 23.3741 17.9856 21.0955 19.6656 19.4155C21.3456 17.7354 23.6242 16.7916 26.0001 16.7916ZM26.0001 0.666626C32.6526 0.666626 39.0326 3.30933 43.7367 8.01336C48.4407 12.7174 51.0834 19.0974 51.0834 25.75C51.0834 44.5625 26.0001 72.3333 26.0001 72.3333C26.0001 72.3333 0.916748 44.5625 0.916748 25.75C0.916748 19.0974 3.55945 12.7174 8.26349 8.01336C12.9675 3.30933 19.3476 0.666626 26.0001 0.666626ZM26.0001 7.83329C21.2483 7.83329 16.6911 9.72094 13.3311 13.081C9.97106 16.441 8.08341 20.9982 8.08341 25.75C8.08341 29.3333 8.08341 36.5 26.0001 60.5441C43.9167 36.5 43.9167 29.3333 43.9167 25.75C43.9167 20.9982 42.0291 16.441 38.6691 13.081C35.3091 9.72094 30.7519 7.83329 26.0001 7.83329Z" fill="white"/>
</svg>
