<svg viewBox="0 0 10 15" fill="none" xmlns="http://www.w3.org/2000/svg">
<path d="M4.99967 3.83331C5.4417 3.83331 5.86563 4.00891 6.17819 4.32147C6.49075 4.63403 6.66634 5.05795 6.66634 5.49998C6.66634 5.71885 6.62323 5.93558 6.53947 6.13779C6.45572 6.33999 6.33295 6.52373 6.17819 6.67849C6.02342 6.83326 5.83969 6.95602 5.63748 7.03978C5.43527 7.12354 5.21854 7.16665 4.99967 7.16665C4.55765 7.16665 4.13372 6.99105 3.82116 6.67849C3.5086 6.36593 3.33301 5.94201 3.33301 5.49998C3.33301 5.05795 3.5086 4.63403 3.82116 4.32147C4.13372 4.00891 4.55765 3.83331 4.99967 3.83331ZM4.99967 0.833313C6.23735 0.833313 7.42434 1.32498 8.29951 2.20015C9.17468 3.07532 9.66634 4.2623 9.66634 5.49998C9.66634 8.99998 4.99967 14.1666 4.99967 14.1666C4.99967 14.1666 0.333008 8.99998 0.333008 5.49998C0.333008 4.2623 0.824673 3.07532 1.69984 2.20015C2.57501 1.32498 3.762 0.833313 4.99967 0.833313ZM4.99967 2.16665C4.11562 2.16665 3.26777 2.51784 2.64265 3.14296C2.01753 3.76808 1.66634 4.61592 1.66634 5.49998C1.66634 6.16665 1.66634 7.49998 4.99967 11.9733C8.33301 7.49998 8.33301 6.16665 8.33301 5.49998C8.33301 4.61592 7.98182 3.76808 7.3567 3.14296C6.73158 2.51784 5.88373 2.16665 4.99967 2.16665Z" fill="#3A8C80"/>
</svg>
