<svg width="1280" height="577" viewBox="0 0 1280 577" fill="none" xmlns="http://www.w3.org/2000/svg">
<path d="M511.045 526.962C510.066 525.787 509.109 524.521 508.28 523.316C505.779 519.723 504.348 516.793 504.288 516.672C504.288 516.657 504.077 516.213 503.753 515.497C503.068 513.938 500.823 508.582 500.318 504.582C499.693 499.656 501.335 496.153 501.403 496.002L501.802 495.166L521.109 510.571C521.282 510.714 537.658 524.145 548.249 527.045L547.857 528.468C536.957 525.485 520.852 512.281 520.174 511.716L502.39 497.524C501.975 498.79 501.373 501.298 501.772 504.394C502.262 508.288 504.619 513.825 505.086 514.894C505.403 515.595 505.606 516.039 505.606 516.039C505.614 516.054 507.045 518.977 509.471 522.472C510.284 523.64 511.211 524.868 512.16 526.013L511.022 526.954L511.045 526.962Z" fill="#3A8C80"/>
<path d="M508.551 516.876C508.062 516.815 507.58 516.732 507.263 516.657C506.495 516.469 505.734 516.205 505.124 515.994C504.732 515.859 504.356 515.731 504.205 515.7L504.408 514.616C504.642 514.661 504.996 514.781 505.486 514.955C506.073 515.158 506.811 515.414 507.527 515.595C508.137 515.746 509.523 515.896 510.126 515.926C511.934 516.009 513.335 515.045 513.787 514.721C515.263 513.719 516.747 512.469 517.372 509.185L518.457 509.396C517.824 512.725 516.378 514.299 514.412 515.64C513.885 516.009 512.258 517.139 510.073 517.034C509.719 517.019 509.124 516.966 508.551 516.891V516.876Z" fill="#3A8C80"/>
<path d="M508.22 509.712C506.668 509.516 505.561 508.085 505.764 506.533C505.968 504.981 507.391 503.874 508.943 504.077C510.495 504.281 511.602 505.705 511.399 507.256C511.196 508.808 509.772 509.915 508.22 509.712ZM508.8 505.17C507.851 505.049 506.977 505.72 506.857 506.669C506.736 507.618 507.407 508.492 508.356 508.612C509.305 508.733 510.179 508.062 510.299 507.113C510.42 506.164 509.749 505.29 508.8 505.17Z" fill="#3A8C80"/>
<path d="M509.425 506.352C509.425 506.352 509.365 506.42 509.335 506.443C509.207 506.631 509.011 506.767 508.77 506.789C508.371 506.865 507.956 506.661 507.798 506.247C507.678 506.39 507.602 506.556 507.58 506.736C507.512 507.271 507.911 507.791 508.446 507.859C508.981 507.927 509.493 507.55 509.568 506.993C509.621 506.789 509.546 506.548 509.418 506.352H509.425Z" fill="#3A8C80"/>
<path d="M509.425 506.352C509.425 506.352 509.365 506.42 509.335 506.443C509.207 506.631 509.011 506.767 508.77 506.789C508.371 506.865 507.956 506.661 507.798 506.247C507.678 506.39 507.602 506.556 507.58 506.736C507.512 507.271 507.911 507.791 508.446 507.859C508.981 507.927 509.493 507.55 509.568 506.993C509.621 506.789 509.546 506.548 509.418 506.352H509.425Z" fill="#3A8C80"/>
<path d="M511.866 524.386C511.218 524.303 510.502 524.039 509.772 523.776C509.418 523.647 509.056 523.512 508.702 523.406L509.034 522.352C509.41 522.472 509.787 522.608 510.148 522.736C511.218 523.128 512.325 523.527 512.747 523.158C513.32 522.661 512.883 521.116 512.499 519.753C512.446 519.557 512.386 519.369 512.333 519.173L512.062 518.171L513.049 518.503C513.591 518.683 514.133 519.007 514.653 519.316C515.949 520.085 516.785 520.521 517.591 519.828C518.171 519.301 517.591 517.192 517.199 515.798L517.086 515.407L516.77 514.503L517.757 514.691C519.263 514.977 520.679 515.241 521.176 514.616C521.561 514.126 521.169 513.328 520.498 512.062C520.37 511.821 520.242 511.58 520.114 511.324L521.101 510.827C521.229 511.075 521.357 511.316 521.478 511.55C522.208 512.928 522.901 514.232 522.05 515.309C521.274 516.28 519.911 516.198 518.389 515.934C518.894 517.772 519.353 519.746 518.329 520.665C516.875 521.915 515.331 521.003 514.096 520.273C513.975 520.205 513.855 520.13 513.742 520.062C514.171 521.621 514.465 523.143 513.485 523.994C513.041 524.386 512.491 524.469 511.881 524.386H511.866Z" fill="#3A8C80"/>
<path d="M518.736 527.233C518.66 526.623 518.465 525.907 518.261 525.146C518.201 524.92 518.141 524.694 518.08 524.476L517.817 523.489L518.788 523.813C519.331 523.994 519.873 524.318 520.393 524.627C521.689 525.395 522.525 525.832 523.331 525.139C523.911 524.612 523.331 522.502 522.939 521.109L522.826 520.717L522.51 519.813L523.496 520.002C525.003 520.288 526.419 520.552 526.916 519.926C527.444 519.233 527.285 517.795 526.517 516.273L527.504 515.776C528.491 517.734 528.596 519.535 527.79 520.604C527.007 521.583 525.643 521.501 524.122 521.237C524.626 523.075 525.086 525.049 524.061 525.968C522.608 527.218 521.063 526.307 519.828 525.576C519.7 525.501 519.579 525.433 519.459 525.357C519.625 525.975 519.768 526.555 519.828 527.105L518.728 527.233H518.736Z" fill="#3A8C80"/>
<path d="M1204.89 499.46C1205.63 498.859 1206.37 498.21 1207.02 497.569C1208.98 495.679 1210.21 494.064 1210.26 493.996C1210.26 493.989 1210.45 493.746 1210.73 493.346C1211.34 492.475 1213.36 489.479 1214.16 487.103C1215.13 484.172 1214.56 481.834 1214.53 481.737L1214.39 481.175L1200.73 488.235C1200.6 488.304 1188.98 494.513 1182.16 494.995L1182.22 495.91C1189.24 495.409 1200.67 489.305 1201.16 489.047L1213.74 482.544C1213.84 483.365 1213.9 484.969 1213.29 486.81C1212.52 489.129 1210.41 492.223 1209.99 492.815C1209.72 493.209 1209.53 493.452 1209.53 493.452C1209.53 493.459 1208.3 495.075 1206.39 496.912C1205.75 497.532 1205.03 498.161 1204.31 498.744L1204.89 499.46Z" fill="#3A8C80"/>
<path d="M1207.64 493.609C1207.95 493.634 1208.25 493.643 1208.45 493.633C1208.95 493.607 1209.44 493.542 1209.84 493.484C1210.1 493.447 1210.34 493.414 1210.44 493.415L1210.44 492.728C1210.29 492.723 1210.06 492.759 1209.74 492.801C1209.36 492.854 1208.88 492.921 1208.42 492.938C1208.03 492.953 1207.16 492.881 1206.79 492.822C1205.68 492.652 1204.94 491.892 1204.7 491.643C1203.92 490.853 1203.17 489.906 1203.18 487.826L1202.49 487.818C1202.48 489.927 1203.17 491.061 1204.21 492.121C1204.49 492.408 1205.35 493.297 1206.69 493.501C1206.91 493.539 1207.28 493.575 1207.64 493.594L1207.64 493.609Z" fill="#3A8C80"/>
<path d="M1207.07 487.384C1207.13 486.408 1207.98 485.672 1208.95 485.74C1209.93 485.808 1210.66 486.652 1210.6 487.627C1210.53 488.602 1209.68 489.338 1208.71 489.271C1207.73 489.203 1207 488.359 1207.07 487.384ZM1207.75 487.431C1207.71 488.028 1208.17 488.545 1208.76 488.582C1209.35 488.62 1209.87 488.17 1209.91 487.58C1209.94 486.99 1209.5 486.465 1208.91 486.428C1208.31 486.391 1207.79 486.84 1207.75 487.431Z" fill="#3A8C80"/>
<path d="M1208.21 487.444C1208.19 487.791 1208.44 488.082 1208.79 488.106C1209.14 488.13 1209.43 487.861 1209.45 487.529C1209.46 487.415 1209.44 487.304 1209.38 487.202C1209.24 487.437 1208.96 487.509 1208.72 487.413C1208.58 487.373 1208.47 487.269 1208.42 487.137C1208.42 487.137 1208.39 487.086 1208.38 487.068C1208.27 487.172 1208.2 487.312 1208.21 487.444Z" fill="#3A8C80"/>
<path d="M1208.21 487.444C1208.19 487.791 1208.44 488.082 1208.79 488.106C1209.14 488.13 1209.43 487.861 1209.45 487.529C1209.46 487.415 1209.44 487.304 1209.38 487.202C1209.24 487.437 1208.96 487.509 1208.72 487.413C1208.58 487.373 1208.47 487.269 1208.42 487.137C1208.42 487.137 1208.39 487.086 1208.38 487.068C1208.27 487.172 1208.2 487.312 1208.21 487.444Z" fill="#3A8C80"/>
<path d="M1204.7 497.788C1205.1 497.814 1205.57 497.746 1206.05 497.671C1206.28 497.636 1206.52 497.601 1206.75 497.575L1206.67 496.888C1206.43 496.913 1206.19 496.953 1205.95 496.986C1205.25 497.09 1204.52 497.205 1204.31 496.93C1204.02 496.556 1204.48 495.666 1204.88 494.881C1204.94 494.769 1204.99 494.657 1205.04 494.544L1205.33 493.968L1204.69 494.051C1204.34 494.095 1203.97 494.228 1203.61 494.355C1202.73 494.663 1202.16 494.83 1201.75 494.312C1201.46 493.923 1202.07 492.701 1202.48 491.902L1202.6 491.678L1202.9 491.166L1202.27 491.16C1201.31 491.149 1200.42 491.142 1200.19 490.702C1200.01 490.357 1200.35 489.92 1200.91 489.225C1201.02 489.091 1201.13 488.957 1201.24 488.816L1200.69 488.39C1200.58 488.523 1200.48 488.657 1200.38 488.785C1199.76 489.539 1199.18 490.246 1199.57 491.012C1199.93 491.704 1200.77 491.818 1201.73 491.837C1201.2 492.897 1200.69 494.045 1201.2 494.733C1201.93 495.669 1202.99 495.307 1203.83 495.007C1203.91 494.975 1203.99 494.952 1204.07 494.92C1203.62 495.819 1203.26 496.718 1203.75 497.35C1203.98 497.643 1204.3 497.762 1204.68 497.785L1204.7 497.788Z" fill="#3A8C80"/>
<path d="M1200.16 498.687C1200.28 498.326 1200.48 497.911 1200.71 497.469C1200.77 497.342 1200.84 497.209 1200.9 497.083L1201.18 496.513L1200.54 496.59C1200.19 496.634 1199.82 496.767 1199.46 496.894C1198.58 497.21 1198.02 497.369 1197.6 496.851C1197.31 496.462 1197.92 495.24 1198.34 494.441L1198.45 494.217L1198.75 493.704L1198.12 493.699C1197.17 493.688 1196.28 493.681 1196.04 493.241C1195.81 492.755 1196.08 491.9 1196.73 491.061L1196.19 490.634C1195.34 491.707 1195.06 492.798 1195.43 493.544C1195.79 494.236 1196.63 494.349 1197.59 494.376C1197.06 495.436 1196.54 496.583 1197.05 497.272C1197.79 498.208 1198.84 497.846 1199.68 497.546C1199.77 497.514 1199.86 497.485 1199.94 497.461C1199.76 497.819 1199.6 498.159 1199.5 498.484L1200.16 498.695L1200.16 498.687Z" fill="#3A8C80"/>
<path d="M949.826 460.004C950.489 460.004 951.054 459.506 951.129 458.836L952.078 450.618C952.116 450.264 952.018 449.917 951.792 449.639C951.566 449.367 951.25 449.187 950.896 449.156L919.191 446.121L914.211 419.99C914.113 419.455 913.692 419.041 913.164 418.943L868.42 410.536C868.021 410.461 867.614 410.574 867.305 410.845C867.004 411.109 866.838 411.508 866.861 411.907L869.181 452.207C869.226 452.93 869.844 453.488 870.567 453.443C871.29 453.397 871.847 452.78 871.802 452.057L869.58 413.436L911.793 421.368L916.788 447.59C916.901 448.162 917.375 448.599 917.955 448.652L949.306 451.657L948.515 458.542C948.433 459.265 948.952 459.921 949.675 460.004C949.728 460.004 949.781 460.011 949.826 460.011V460.004Z" fill="#3A8C80"/>
<path d="M853.076 451.228C853.076 451.228 853.143 451.228 853.174 451.228C853.897 451.175 854.447 450.543 854.394 449.819L851.818 414.514L868.284 413.15C869.007 413.09 869.55 412.457 869.49 411.726C869.429 411.003 868.797 410.461 868.066 410.521L850.304 411.99C849.588 412.05 849.046 412.675 849.098 413.399L851.765 450.008C851.818 450.701 852.39 451.228 853.076 451.228Z" fill="#3A8C80"/>
<path d="M937.028 449.865C937.337 449.865 937.585 449.616 937.585 449.307V379.2C937.585 378.906 937.352 378.665 937.058 378.65C936.764 378.643 936.508 378.854 936.478 379.147L928.975 448.561C928.945 448.863 929.164 449.141 929.465 449.172C929.766 449.202 930.045 448.983 930.075 448.682L936.47 389.497V449.315C936.47 449.624 936.719 449.872 937.028 449.872V449.865Z" fill="#3A8C80"/>
<path d="M822.463 444.207C823.073 444.207 823.623 443.778 823.751 443.153L825.122 436.351C825.19 436.012 825.122 435.65 824.926 435.364C824.73 435.078 824.429 434.874 824.09 434.799L798.057 429.579C797.356 429.436 796.671 429.88 796.513 430.581L795.157 436.592C794.998 437.3 795.443 438.008 796.151 438.166C796.859 438.324 797.567 437.88 797.725 437.172L798.795 432.411L822.282 437.119L821.167 442.633C821.024 443.349 821.484 444.042 822.199 444.185C822.29 444.2 822.372 444.207 822.463 444.207Z" fill="#3A8C80"/>
<path d="M813.514 434.573C813.8 434.573 814.041 434.355 814.064 434.061L820.173 355.043C820.195 354.749 819.984 354.493 819.698 354.448C819.404 354.41 819.133 354.606 819.08 354.892L804 432.11C803.94 432.411 804.135 432.705 804.437 432.758C804.738 432.818 805.032 432.622 805.085 432.321L818.327 364.496L812.956 433.97C812.934 434.272 813.16 434.543 813.469 434.566C813.484 434.566 813.499 434.566 813.514 434.566V434.573Z" fill="#3A8C80"/>
<path d="M937.028 379.757H946.79C947.099 379.757 947.348 379.509 947.348 379.2C947.348 378.891 947.099 378.643 946.79 378.643H937.616L938.64 361.875C938.655 361.566 938.429 361.31 938.12 361.287C937.819 361.265 937.555 361.498 937.533 361.807L936.471 379.162C936.463 379.313 936.516 379.464 936.621 379.577C936.727 379.69 936.87 379.75 937.028 379.75V379.757Z" fill="#3A8C80"/>
<path d="M929.525 379.757H937.028C937.337 379.757 937.586 379.509 937.586 379.2C937.586 378.891 937.337 378.643 937.028 378.643H929.525C929.217 378.643 928.968 378.891 928.968 379.2C928.968 379.509 929.217 379.757 929.525 379.757Z" fill="#3A8C80"/>
<path d="M810.674 355.555H828.594C828.903 355.555 829.152 355.306 829.152 354.997C829.152 354.689 828.903 354.44 828.594 354.44H810.674C810.365 354.44 810.117 354.689 810.117 354.997C810.117 355.306 810.365 355.555 810.674 355.555Z" fill="#3A8C80"/>
<path d="M819.623 355.555C819.909 355.555 820.15 355.336 820.173 355.05L822.493 330.365C822.523 330.064 822.297 329.793 821.996 329.763C821.687 329.733 821.423 329.959 821.393 330.26L819.073 354.945C819.043 355.246 819.269 355.517 819.57 355.547C819.585 355.547 819.608 355.547 819.623 355.547V355.555Z" fill="#3A8C80"/>
<path d="M989.252 460.124C989.531 460.124 989.772 459.913 989.802 459.627L991.798 439.635H1049.66L1051.64 458.738C1051.67 459.039 1051.94 459.265 1052.25 459.235C1052.55 459.205 1052.78 458.934 1052.75 458.625L1050.72 439.025C1050.69 438.739 1050.46 438.528 1050.17 438.528H991.309C991.023 438.528 990.789 438.746 990.759 439.025L988.71 459.514C988.68 459.815 988.898 460.086 989.207 460.124C989.222 460.124 989.245 460.124 989.26 460.124H989.252Z" fill="#3A8C80"/>
<path d="M1011.1 460.124C1011.41 460.124 1011.65 459.876 1011.65 459.567V439.078C1011.65 438.769 1011.41 438.52 1011.1 438.52C1010.79 438.52 1010.54 438.769 1010.54 439.078V459.567C1010.54 459.876 1010.79 460.124 1011.1 460.124Z" fill="#3A8C80"/>
<path d="M1033.61 459.665C1033.61 459.665 1033.64 459.665 1033.65 459.665C1033.96 459.65 1034.19 459.386 1034.17 459.077L1032.95 439.055C1032.93 438.746 1032.66 438.513 1032.36 438.535C1032.05 438.55 1031.83 438.814 1031.84 439.123L1033.06 459.145C1033.08 459.439 1033.33 459.665 1033.61 459.665Z" fill="#3A8C80"/>
<path d="M990.684 446H1050.82C1051.13 446 1051.37 445.752 1051.37 445.443C1051.37 445.134 1051.13 444.885 1050.82 444.885H990.684C990.375 444.885 990.126 445.134 990.126 445.443C990.126 445.752 990.375 446 990.684 446Z" fill="#3A8C80"/>
<path d="M990.081 451.755H1051.41C1051.72 451.755 1051.97 451.507 1051.97 451.198C1051.97 450.889 1051.72 450.64 1051.41 450.64H990.081C989.772 450.64 989.524 450.889 989.524 451.198C989.524 451.507 989.772 451.755 990.081 451.755Z" fill="#3A8C80"/>
<path d="M896.999 383.569C883.553 383.177 870.732 381.045 858.898 377.249C844.104 372.496 830.809 365.106 819.397 355.268C819.254 355.148 819.239 354.93 819.359 354.779C819.48 354.636 819.698 354.613 819.849 354.734C829.732 362.952 856.337 370.454 877.934 374.741C902.852 379.682 924.712 381.415 934.949 379.343C936.109 379.072 936.772 378.891 936.885 378.861C936.892 378.861 936.9 378.861 936.907 378.861C937.058 378.816 937.216 378.876 937.299 379.012C937.382 379.147 937.367 379.313 937.261 379.433C937.246 379.449 937.231 379.471 937.103 379.516V379.531C936.606 379.682 936.071 379.818 935.499 379.946C935.115 380.036 934.648 380.142 934.075 380.27C932.297 380.661 929.412 381.256 925.721 381.821C920.064 382.688 911.545 383.652 901.534 383.652C900.057 383.652 898.543 383.629 896.999 383.584V383.569ZM877.791 375.426C859.531 371.803 837.686 365.875 825.287 359.133C849.641 377.528 877.218 382.251 896.675 382.868C909.292 383.268 920.147 382.032 927.394 380.827C915.673 381.271 897.692 379.373 877.791 375.426Z" fill="#3A8C80"/>
<path d="M729.855 423.251C729.953 423.251 730.051 423.206 730.119 423.131L774.532 370.357L819.728 355.329C819.909 355.269 820.007 355.073 819.947 354.892C819.887 354.711 819.691 354.613 819.51 354.673L774.223 369.731C774.163 369.754 774.11 369.792 774.065 369.837L729.592 422.686C729.471 422.83 729.486 423.048 729.637 423.176C729.705 423.229 729.78 423.259 729.863 423.259L729.855 423.251Z" fill="#3A8C80"/>
<path d="M808.527 412.382C808.647 412.382 808.776 412.344 808.881 412.254C809.115 412.058 809.152 411.711 808.956 411.47L774.765 369.701C774.569 369.468 774.223 369.43 773.982 369.626C773.748 369.822 773.711 370.168 773.907 370.409L808.098 412.178C808.211 412.314 808.369 412.382 808.527 412.382Z" fill="#3A8C80"/>
<path d="M850.409 413.301L851.682 430.852L869.196 429.715L916.072 436.908L912.923 420.246L868.179 411.839L850.417 413.308L850.409 413.301ZM890.92 430.965L892.005 421.105L896.163 421.685L895.116 431.643L890.92 430.965ZM881.565 429.473L882.649 419.613L886.807 420.193L885.76 430.151L881.565 429.473ZM872.405 417.994L878.084 418.785L877.037 428.743L872.842 428.065L872.397 417.994H872.405ZM853.852 417.527L865.083 416.871L865.64 427.794L854.891 428.434L853.844 417.534L853.852 417.527Z" fill="#3A8C80"/>
<path d="M762.736 476.312C784.656 483.95 806.847 489.163 825.845 488.741C891.236 487.272 886.054 483.212 985.81 480.297C1007.94 479.641 1027.39 480.236 1044.24 481.592C1044.24 481.592 1046.95 477.69 1050.6 467.25C1051.45 464.817 1052.38 461.932 1053.39 458.587C1053.39 458.587 1052.98 458.61 1052.17 458.625C1049.54 458.7 1042.77 458.896 1033.61 459.092C1027.12 459.25 1019.38 459.378 1011.1 459.461C1004.1 459.537 996.717 459.574 989.252 459.559C975.513 459.521 961.592 459.288 949.803 458.67C949.321 458.648 948.817 458.61 948.312 458.595C921.541 457.126 897.3 455.288 870.491 452.117C864.812 451.461 859.011 450.723 853.053 449.91C845.535 448.908 837.784 447.785 829.649 446.527L827.216 443.959C827.216 443.959 825.476 443.575 822.463 442.912C805.258 439.085 746.345 426.054 729.84 422.905C728.138 422.573 726.903 422.362 726.187 422.265C717.238 421.044 723.754 427.831 727.829 430.4C731.791 432.893 744.763 440.177 762.736 476.304V476.312Z" fill="#3A8C80"/>
<path d="M762.555 476.839C762.419 476.794 762.306 476.689 762.239 476.56C744.883 441.684 732.123 433.737 727.927 431.123C727.784 431.033 727.656 430.957 727.535 430.874C724.936 429.232 720.417 425.225 721.245 422.943C721.69 421.722 723.332 421.323 726.255 421.722C727.023 421.828 728.326 422.054 729.938 422.363C744.981 425.232 797.115 436.705 822.576 442.369C825.589 443.025 827.336 443.416 827.336 443.416C827.442 443.439 827.54 443.499 827.615 443.575L829.92 446.008C838.078 447.266 845.671 448.365 853.129 449.36C859.117 450.173 864.977 450.919 870.552 451.559C894.928 454.444 918.196 456.38 948.327 458.03C948.591 458.037 948.854 458.053 949.11 458.068C949.352 458.083 949.585 458.098 949.819 458.105C960.214 458.648 973.471 458.949 989.245 458.994C996.28 459.009 1003.62 458.979 1011.08 458.896C1018.71 458.828 1026.49 458.7 1033.6 458.527C1040.02 458.392 1046.43 458.233 1052.15 458.06C1052.94 458.038 1053.35 458.022 1053.36 458.022C1053.54 458.015 1053.71 458.09 1053.82 458.233C1053.93 458.376 1053.96 458.565 1053.91 458.731C1052.92 462.022 1051.98 464.945 1051.11 467.416C1047.47 477.803 1044.8 481.728 1044.69 481.894C1044.57 482.059 1044.38 482.15 1044.19 482.127C1025.92 480.658 1006.28 480.229 985.817 480.832C932.215 482.398 909.097 484.282 888.691 485.946C871.207 487.37 856.111 488.598 825.845 489.283C825.122 489.298 824.399 489.306 823.66 489.306C806.885 489.306 786.336 485.11 762.54 476.824L762.555 476.839ZM1043.96 481.012C1044.61 479.98 1047.02 475.822 1050.09 467.069C1050.88 464.802 1051.74 462.15 1052.64 459.175C1052.5 459.175 1052.36 459.182 1052.2 459.19C1046.48 459.356 1040.06 459.521 1033.64 459.657C1026.52 459.823 1018.74 459.951 1011.11 460.026C1003.66 460.109 996.303 460.139 989.26 460.124C973.471 460.079 960.191 459.778 949.788 459.235C949.547 459.228 949.306 459.213 949.065 459.198C948.809 459.182 948.561 459.167 948.297 459.16C918.128 457.503 894.845 455.567 870.446 452.682C864.865 452.034 858.997 451.296 853 450.475C845.475 449.473 837.814 448.365 829.581 447.092C829.461 447.077 829.348 447.017 829.265 446.927L826.945 444.479C826.448 444.366 824.828 444.012 822.357 443.469C796.897 437.805 744.778 426.34 729.75 423.47C728.161 423.161 726.872 422.935 726.127 422.837C722.91 422.4 722.39 423.108 722.308 423.342C721.848 424.607 725.185 428.095 728.145 429.963C728.266 430.038 728.394 430.121 728.537 430.204C730.82 431.628 735.068 434.272 741.026 441.029C748.288 449.262 755.73 460.99 763.158 475.883C787.782 484.44 808.874 488.583 825.86 488.206C856.089 487.528 871.177 486.3 888.638 484.877C909.051 483.212 932.192 481.329 985.825 479.762C991.814 479.581 997.727 479.498 1003.56 479.498C1017.58 479.498 1031.13 480.01 1043.99 481.035L1043.96 481.012Z" fill="#3A8C80"/>
<path d="M883.643 473.63C838.003 467.725 749.727 451.507 748.838 451.341L748.687 451.311L737.192 437.24L738.518 437.661C738.661 437.707 753.026 442.211 778.057 448.049C801.16 453.435 838.327 461.096 884.208 466.986C929.292 472.771 1049.23 469.894 1050.43 469.864L1051.07 469.849L1048.64 475.845H1048.37C1047.73 475.883 1011.09 477.321 970.134 477.321C939.212 477.321 905.827 476.5 883.629 473.63H883.643ZM1049.83 470.708C1045.26 470.813 1016.87 471.438 983.791 471.438C947.996 471.438 906.686 470.708 884.111 467.815C838.191 461.924 800.987 454.256 777.869 448.863C757.109 444.019 743.67 440.095 739.595 438.859L749.147 450.55C753.305 451.311 839.027 467.017 883.757 472.802C934.068 479.31 1041.92 475.272 1048.08 475.031L1049.83 470.708Z" fill="#3A8C80"/>
<path d="M457.005 576.957C479.716 562.494 507.211 560.919 533.394 560.528C563.39 560.076 593.392 559.88 623.395 559.677C684.087 559.262 744.785 559.322 805.461 560.904C866.13 562.479 926.678 567.036 987.347 568.475C1043.39 569.801 1099.92 567.737 1154.75 555.18C1203.49 544.024 1250.99 524.702 1290.83 494.059C1295.68 490.323 1300.4 486.421 1305 482.383C1305.46 481.984 1304.79 481.321 1304.34 481.72C1265.38 515.919 1217.51 538.058 1167.62 551.074C1113.21 565.273 1056.75 568.535 1000.72 567.789C940.644 566.991 880.683 562.215 820.632 560.4C759.964 558.562 699.265 558.328 638.581 558.652C608.511 558.818 578.448 559.119 548.377 559.428C522.999 559.692 496.386 559.006 472.289 568.226C466.775 570.335 461.525 572.987 456.545 576.158C456.033 576.482 456.508 577.296 457.02 576.972L457.005 576.957Z" fill="#3A8C80"/>
<path d="M247.994 506.94C318.968 515.362 390.235 521.343 461.623 524.8C532.295 528.22 603.577 530.389 674.309 527.497C691.288 526.804 708.274 525.403 724.997 522.322C741.463 519.286 757.448 514.33 773.312 509.057C789.432 503.701 805.499 498.104 822.034 494.104C839.268 489.939 856.835 487.287 874.469 485.57C909.097 482.195 944.018 482.082 978.782 481.547C1013.55 481.012 1049.38 480.929 1084.59 483.408C1118.86 485.818 1152.43 492.183 1186.38 496.997C1216.39 501.245 1247.43 503.799 1277.25 496.906C1285.06 495.106 1292.65 492.613 1300.04 489.532C1300.59 489.298 1300.35 488.387 1299.79 488.62C1238.2 514.322 1170.13 490.978 1107.08 484.417C1072.33 480.801 1037.35 480.108 1002.43 480.334C967.513 480.56 932.463 480.817 897.594 482.858C862.725 484.899 831.11 489.539 799.051 499.596C783.21 504.567 767.594 510.27 751.655 514.932C734.322 519.994 716.681 523.278 698.7 524.973C663.922 528.258 628.653 527.587 593.762 527.406C558.026 527.218 522.291 526.412 486.586 524.973C415.861 522.126 345.242 516.83 274.886 509.087C265.922 508.1 256.958 507.068 248.002 506.006C247.399 505.938 247.407 506.88 248.002 506.948L247.994 506.94Z" fill="#3A8C80"/>
<path d="M734.059 472.817C690.572 465.013 647.041 457.231 603.14 452.139C558.847 447.002 514.096 444.622 469.57 447.921C426.196 451.13 383.561 460.079 341.009 468.674C297.356 477.487 253.584 484.959 209.216 489.125C164.961 493.283 120.45 494.669 76.0222 493.276C70.5233 493.102 65.0244 492.884 59.533 492.628C58.9304 492.598 58.9304 493.539 59.533 493.569C103.72 495.618 148.02 494.963 192.117 491.536C235.55 488.161 278.622 481.916 321.363 473.555C364.714 465.066 407.899 455.213 451.883 450.475C495.791 445.752 540.083 446.806 583.992 451.047C628.781 455.371 673.179 462.911 717.457 470.805C722.91 471.777 728.356 472.756 733.81 473.736C734.405 473.841 734.654 472.937 734.059 472.824V472.817Z" fill="#3A8C80"/>
<path d="M-106.24 380.081C-21.745 344.775 70.5986 336.67 161.338 339.894C256.657 343.276 351.321 357.784 445.857 369.581C540.392 381.377 643.606 392.699 743.113 391.697C839.871 390.725 934.226 374.191 1029.15 357.001C1123.39 339.939 1219.35 323.774 1315.43 332.226C1328.14 333.341 1340.8 334.923 1353.41 336.911C1354 337.002 1354.26 336.098 1353.66 336C1260.02 321.266 1165.33 332.505 1072.62 348.353C975.965 364.88 879.968 385.558 781.703 389.746C681.382 394.017 581.084 384.895 481.562 373.008C385.474 361.536 289.545 346.41 192.885 340.489C103.117 334.99 11.0148 338.312 -74.911 367.238C-85.5849 370.831 -96.1006 374.831 -106.496 379.177C-107.046 379.411 -106.805 380.322 -106.247 380.089L-106.24 380.081Z" fill="#3A8C80"/>
<path d="M-76.7114 397.105C3.30127 425.827 88.7149 434.317 173.292 432.923C262.088 431.462 350.153 419.206 438.256 409.15C529.364 398.755 620.217 392.337 711.882 398.604C803.616 404.879 894.589 419.093 986.322 425.473C1078.09 431.854 1170.41 432.027 1262.06 423.56C1273.28 422.521 1284.5 421.346 1295.7 420.057C1296.29 419.99 1296.3 419.048 1295.7 419.116C1204.7 429.586 1112.89 431.394 1021.45 426.664C929.978 421.926 839.396 408.675 748.228 400.548C702.994 396.518 657.624 394.062 612.202 394.891C566.569 395.719 521.048 399.388 475.671 404.111C386.732 413.368 298.125 426.762 208.711 430.859C123.094 434.784 35.9858 430.4 -46.6257 405.971C-56.6668 403.003 -66.6025 399.727 -76.4553 396.186C-77.0278 395.983 -77.2763 396.894 -76.7038 397.098L-76.7114 397.105Z" fill="#3A8C80"/>
<path d="M-234.484 318.057C-130.088 316.279 -25.6998 314.501 78.6963 312.724C130.348 311.842 182.068 310.298 233.712 311.985C285.033 313.665 335.63 320.731 386.484 327.269C436.313 333.672 486.722 338.742 536.935 333.853C586.221 329.055 634.386 315.737 683.936 313.289C734.661 310.78 784.581 323.187 834.779 328.452C884.706 333.687 934.994 335.164 985.162 333.567C1084.99 330.395 1184.15 315.187 1281.52 293.395C1293.69 290.668 1305.83 287.835 1317.96 284.92C1318.55 284.777 1318.3 283.873 1317.71 284.009C1219.29 307.684 1119.14 325.303 1017.97 331.149C968.357 334.011 918.543 334.034 868.955 330.508C842.643 328.64 816.429 325.718 790.343 321.831C766.344 318.253 742.367 314.125 718.119 312.58C669.639 309.5 622.273 320.181 574.726 327.857C523.391 336.135 472.726 335.977 421.104 330.463C370.793 325.092 320.858 316.43 270.351 312.897C218.948 309.304 167.379 310.275 115.9 311.149C12.0241 312.919 -91.8522 314.69 -195.729 316.46L-234.492 317.123C-235.095 317.13 -235.102 318.072 -234.492 318.064L-234.484 318.057Z" fill="#3A8C80"/>
</svg>
