<svg width="40" height="40" viewBox="0 0 40 40" fill="none" xmlns="http://www.w3.org/2000/svg">
<g clip-path="url(#clip0_368_2703)">
<path d="M39.5665 8.54665L33.3332 14.1666V9.99998H23.3332V4.99998H33.3332V0.833313L39.5665 6.45165C40.1449 7.02998 40.1449 7.96831 39.5665 8.54665ZM15.2082 16.1783L35.2082 21.395V39.9783L10.2082 39.9933L1.43155 32.675C-0.0117862 31.4716 -0.206786 29.3283 0.996547 27.885C2.19988 26.4416 4.34321 26.2466 5.78655 27.45L10.1865 31.1533V5.82665C10.1865 4.30831 11.5182 3.10665 13.0849 3.36165C14.3132 3.56165 15.2065 4.71498 15.2065 5.96165V16.1783H15.2082ZM15.2082 21.345V35.0066L30.2082 34.985V25.2583L15.2082 21.345Z" fill="black" fill-opacity="0.3"/>
</g>
<defs>
<clipPath id="clip0_368_2703">
<rect width="40" height="40" fill="white"/>
</clipPath>
</defs>
</svg>
