<svg width="24" height="16" viewBox="0 0 24 16" fill="none" xmlns="http://www.w3.org/2000/svg">
<path fill-rule="evenodd" clip-rule="evenodd" d="M23.405 12.865C22.8609 11.7695 22.1441 10.7687 21.282 9.90099C20.9932 9.57548 20.6913 9.26189 20.377 8.96099L20.339 8.92399C20.2222 8.81081 20.1069 8.69613 19.993 8.57999C21.1718 6.94084 22.1803 5.18576 23.003 3.34199L23.036 3.26799L23.059 3.18999C23.168 2.82699 23.292 2.13699 22.852 1.51299C22.396 0.86899 21.667 0.75299 21.178 0.75299H18.931C18.4604 0.731239 17.9951 0.859053 17.6017 1.1181C17.2082 1.37715 16.9069 1.75414 16.741 2.19499C16.2575 3.34665 15.652 4.44323 14.935 5.46599V2.83299C14.935 2.49299 14.903 1.92299 14.538 1.44299C14.102 0.86699 13.471 0.75299 13.033 0.75299H9.467C9.00167 0.742283 8.55005 0.910951 8.20567 1.22406C7.86128 1.53718 7.65051 1.97075 7.617 2.43499L7.614 2.47999V2.52499C7.614 3.00999 7.806 3.36799 7.96 3.59299C8.029 3.69399 8.102 3.78599 8.149 3.84399L8.159 3.85699C8.209 3.91899 8.242 3.95999 8.275 4.00599C8.363 4.12399 8.488 4.30799 8.524 4.78199V6.25499C7.80827 5.05626 7.22134 3.78519 6.773 2.46299L6.765 2.44099L6.757 2.41999C6.635 2.10099 6.44 1.63699 6.049 1.28299C5.593 0.86799 5.053 0.75299 4.562 0.75299H2.282C1.785 0.75299 1.186 0.86899 0.739 1.33999C0.3 1.80399 0.25 2.35999 0.25 2.65399V2.78799L0.278 2.91799C0.908264 5.84912 2.20931 8.59428 4.079 10.938C4.93332 12.2854 6.09321 13.4124 7.46459 14.2276C8.83596 15.0428 10.3802 15.5233 11.972 15.63L12.013 15.633H12.055C12.781 15.633 13.538 15.57 14.107 15.191C14.874 14.679 14.935 13.894 14.935 13.502V12.364C15.132 12.524 15.376 12.738 15.675 13.026C16.037 13.388 16.325 13.702 16.572 13.976L16.704 14.122C16.896 14.336 17.085 14.547 17.257 14.72C17.473 14.937 17.74 15.176 18.074 15.353C18.437 15.544 18.818 15.631 19.222 15.631H21.503C21.984 15.631 22.673 15.517 23.158 14.955C23.686 14.343 23.646 13.592 23.48 13.053L23.45 12.956L23.405 12.865ZM17.685 12.971C17.3751 12.6245 17.056 12.2864 16.728 11.957L16.725 11.954C15.368 10.646 14.735 10.419 14.287 10.419C14.048 10.419 13.785 10.445 13.614 10.659C13.5379 10.7616 13.4875 10.8809 13.467 11.007C13.4432 11.1537 13.4324 11.3023 13.435 11.451V13.502C13.435 13.757 13.393 13.864 13.275 13.942C13.118 14.047 12.783 14.132 12.064 14.132C10.6982 14.0391 9.37398 13.6233 8.20018 12.9189C7.02637 12.2145 6.03652 11.2415 5.312 10.08L5.304 10.067L5.294 10.055C3.55218 7.88874 2.3388 5.34659 1.75 2.62999C1.754 2.49999 1.782 2.42099 1.828 2.37299C1.875 2.32299 1.99 2.25299 2.282 2.25299H4.562C4.815 2.25299 4.947 2.30899 5.042 2.39399C5.148 2.49199 5.242 2.65699 5.354 2.95099C5.914 4.59699 6.67 6.13699 7.387 7.26899C7.745 7.83399 8.097 8.30499 8.415 8.63799C8.574 8.80399 8.729 8.94199 8.878 9.03999C9.021 9.13399 9.184 9.20899 9.352 9.20899C9.44 9.20899 9.543 9.19899 9.642 9.15599C9.74905 9.10896 9.83712 9.02723 9.892 8.92399C9.995 8.73599 10.024 8.45899 10.024 8.09599V4.72299C9.971 3.90499 9.724 3.44399 9.484 3.11699C9.43532 3.05164 9.38531 2.9873 9.334 2.92399L9.321 2.90799C9.27856 2.85604 9.23787 2.80267 9.199 2.74799C9.1503 2.68653 9.12075 2.61211 9.114 2.53399C9.12185 2.45453 9.15976 2.38107 9.21999 2.32864C9.28022 2.27622 9.35821 2.2488 9.438 2.25199H13.033C13.239 2.25199 13.308 2.30199 13.343 2.34899C13.393 2.41399 13.435 2.54899 13.435 2.83299V7.36099C13.435 7.89899 13.683 8.26299 14.043 8.26299C14.457 8.26299 14.756 8.01199 15.278 7.48999L15.287 7.47999L15.295 7.47099C16.4661 6.04335 17.4228 4.45263 18.135 2.74899L18.139 2.73699C18.1922 2.58629 18.2935 2.45722 18.4272 2.36961C18.5608 2.28199 18.7196 2.24067 18.879 2.25199H21.179C21.491 2.25199 21.593 2.33199 21.627 2.37899C21.662 2.42899 21.687 2.53599 21.627 2.74599C20.8057 4.5824 19.7903 6.32566 18.598 7.94599L18.59 7.95799C18.475 8.13499 18.348 8.33099 18.33 8.55499C18.31 8.79699 18.414 9.01599 18.597 9.25199C18.73 9.44799 19.005 9.71699 19.284 9.98999L19.31 10.016C19.602 10.302 19.919 10.612 20.173 10.912L20.18 10.919L20.187 10.927C20.9443 11.6826 21.5741 12.5559 22.052 13.513C22.128 13.773 22.082 13.907 22.022 13.976C21.953 14.056 21.798 14.131 21.504 14.131H19.222C19.0664 14.1352 18.9124 14.099 18.775 14.026C18.6067 13.9274 18.4538 13.8048 18.321 13.662C18.178 13.519 18.023 13.346 17.833 13.135L17.685 12.971Z" fill="black" fill-opacity="0.8"/>
</svg>
