<svg width="16" height="16" viewBox="0 0 16 16" fill="currentColor" xmlns="http://www.w3.org/2000/svg">
<path d="M10.8613 9.3125C10.9138 8.87938 10.9531 8.44625 10.9531 8C10.9531 7.55375 10.9138 7.12063 10.8613 6.6875H13.0794C13.1844 7.1075 13.25 7.54719 13.25 8C13.25 8.45281 13.1844 8.8925 13.0794 9.3125M9.69969 12.9613C10.0934 12.2328 10.3953 11.4453 10.6053 10.625H12.5413C11.9055 11.7198 10.8968 12.5491 9.69969 12.9613ZM9.53563 9.3125H6.46438C6.39875 8.87938 6.35938 8.44625 6.35938 8C6.35938 7.55375 6.39875 7.11406 6.46438 6.6875H9.53563C9.59469 7.11406 9.64063 7.55375 9.64063 8C9.64063 8.44625 9.59469 8.87938 9.53563 9.3125ZM8 13.2238C7.45531 12.4363 7.01563 11.5634 6.74656 10.625H9.25344C8.98438 11.5634 8.54469 12.4363 8 13.2238ZM5.375 5.375H3.45875C4.08786 4.27712 5.09587 3.44644 6.29375 3.03875C5.9 3.76719 5.60469 4.55469 5.375 5.375ZM3.45875 10.625H5.375C5.60469 11.4453 5.9 12.2328 6.29375 12.9613C5.09824 12.5493 4.09156 11.7198 3.45875 10.625ZM2.92063 9.3125C2.81563 8.8925 2.75 8.45281 2.75 8C2.75 7.54719 2.81563 7.1075 2.92063 6.6875H5.13875C5.08625 7.12063 5.04688 7.55375 5.04688 8C5.04688 8.44625 5.08625 8.87938 5.13875 9.3125M8 2.76969C8.54469 3.55719 8.98438 4.43656 9.25344 5.375H6.74656C7.01563 4.43656 7.45531 3.55719 8 2.76969ZM12.5413 5.375H10.6053C10.3996 4.56231 10.0955 3.77776 9.69969 3.03875C10.9072 3.45219 11.9113 4.28563 12.5413 5.375ZM8 1.4375C4.37094 1.4375 1.4375 4.39063 1.4375 8C1.4375 9.74048 2.1289 11.4097 3.35961 12.6404C3.969 13.2498 4.69244 13.7332 5.48864 14.063C6.28484 14.3928 7.1382 14.5625 8 14.5625C9.74048 14.5625 11.4097 13.8711 12.6404 12.6404C13.8711 11.4097 14.5625 9.74048 14.5625 8C14.5625 7.1382 14.3928 6.28484 14.063 5.48864C13.7332 4.69244 13.2498 3.969 12.6404 3.35961C12.031 2.75023 11.3076 2.26684 10.5114 1.93704C9.71516 1.60724 8.8618 1.4375 8 1.4375Z"/>
</svg>
